<?xml version="1.0" encoding="UTF-8"?><svg id="Capa_2" xmlns="http://www.w3.org/2000/svg" viewBox="0 0 395.22 367.48"><defs><style>.cls-1{fill:#e580b2;}.cls-2{fill:#982781;}.cls-3{fill:#772063;}.cls-4{fill:#b0378c;}.cls-5{fill:#e784b4;}.cls-6{fill:#fadfed;}.cls-7{fill:#b2398d;}.cls-8{fill:#691f5a;}.cls-9{fill:#832370;}.cls-10{fill:#dd74ab;}.cls-11{fill:#822471;}.cls-12{fill:#922377;}.cls-13{fill:#9b2781;}.cls-14{fill:#7e226b;}.cls-15{fill:#a42a85;}.cls-16{fill:#872373;}.cls-17{fill:#85226e;}.cls-18{fill:#ee93bd;}.cls-19{fill:#712162;}.cls-20{fill:#802168;}.cls-21{fill:#a22c86;}.cls-22{fill:#f7d4e7;}.cls-23{fill:#912479;}.cls-24{fill:#eebfda;}.cls-25{fill:#ed90bc;}.cls-26{fill:#86236d;}.cls-27{fill:#852473;}.cls-28{fill:#d368a5;}.cls-29{fill:#6f1f5f;}.cls-30{fill:#ae358b;}.cls-31{fill:#8e247a;}.cls-32{fill:#9e2781;}.cls-33{fill:#edbeda;}.cls-34{fill:#f7d6e8;}.cls-35{fill:#fce7f2;}.cls-36{fill:#edbdd9;}.cls-37{fill:#7a2164;}.cls-38{fill:#87226f;}.cls-39{fill:#fbe3ef;}.cls-40{fill:#83226d;}.cls-41{fill:#e886b5;}.cls-42{fill:#fadeed;}.cls-43{fill:#e078ae;}.cls-44{fill:#f09ac1;}.cls-45{fill:#9f2a84;}.cls-46{fill:#ad328a;}.cls-47{fill:#ea8bb8;}.cls-48{fill:#e17aaf;}.cls-49{fill:#772267;}.cls-50{fill:#b44f98;}.cls-51{fill:#e27cb0;}.cls-52{fill:#eebeda;}.cls-53{fill:#8c2272;}.cls-54{fill:#a93089;}.cls-55{fill:#e988b7;}.cls-56{fill:#872370;}.cls-57{fill:#f6d2e6;}.cls-58{fill:#7f2169;}.cls-59{fill:#ad338a;}.cls-60{fill:#f29ec4;}.cls-61{fill:#782167;}.cls-62{fill:#de77ad;}.cls-63{fill:#97267e;}.cls-64{fill:#7d226b;}.cls-65{fill:#932377;}.cls-66{fill:#ab328a;}.cls-67{fill:#fbe4f0;}.cls-68{fill:#96267f;}.cls-69{fill:#9c2883;}.cls-70{fill:#8c2477;}.cls-71{fill:#de76ad;}.cls-72{fill:#93267e;}.cls-73{fill:#efc2dc;}.cls-74{fill:#f5cfe4;}.cls-75{fill:#741f60;}.cls-76{fill:#9f2781;}.cls-77{fill:#f7d5e7;}.cls-78{fill:#90257c;}.cls-79{fill:#661e59;}.cls-80{fill:#f7d5e8;}.cls-81{fill:#f5d0e4;}.cls-82{fill:#dc72aa;}.cls-83{fill:#7f236e;}.cls-84{fill:#a72f88;}.cls-85{fill:#fce6f1;}.cls-86{fill:#a82e87;}.cls-87{fill:#742062;}.cls-88{fill:#8d2375;}.cls-89{fill:#a42e87;}.cls-90{fill:#f9dbeb;}.cls-91{fill:#f8d8e9;}.cls-92{fill:#f9ddec;}.cls-93{fill:#e887b6;}.cls-94{fill:#97247b;}.cls-95{fill:#a02984;}.cls-96{fill:#80226b;}.cls-97{fill:#ef95bf;}.cls-98{fill:#7c226b;}.cls-99{fill:#fbe5f1;}.cls-100{fill:#882475;}.cls-101{fill:#efc0db;}.cls-102{fill:#92257c;}.cls-103{fill:#f7d3e6;}.cls-104{fill:#fadeec;}.cls-105{fill:#8a2372;}.cls-106{fill:#9a267f;}.cls-107{fill:#95257c;}.cls-108{fill:#f9dcec;}.cls-109{fill:#fbe2ef;}</style></defs><path class="cls-44" d="m358.15,145.83c1.33,1.97,3.02,3.6,4.93,5,1.77,2.54,4.45,4.3,6.06,6.97,1.33,1.97,3.02,3.6,4.94,5,1.76,2.55,4.45,4.29,6.06,6.98.05.3.11.61.17.91-4.79,3.97-10.79,5.87-16.38,7.81-12.2,4.24-24.66,7.83-37.23,11.02-5.42,1.38-12.1,1.26-16.29,6.43-.29.36-.9.65-1.35.56-5.93-1.13-10.47,4.13-16.28,3.53-.49-.05-1.05.03-1.46.27-8.91,5.3-19.35,6.02-28.76,9.63-5.25,2.02-10.32,4.24-15.92,5.06-.81.08-1.5-.2-2.12-.71-4.51-4.35-8.25-9.4-12.58-13.92-3.48-3.63-5.7-8.06-5.98-13.25-.04-2.34-.05-4.67-.02-7,0-.79.1-1.57.27-2.35,1.3-2.7,1.22-6.31,4.86-7.51,1.48.01,3,.39,4.4-.39,8.54-4.73,17.15-8.73,27.19-9.94,7.39-.89,13.75-6.54,21.56-6.82,6.17-.22,11.5-2.78,17-5.04,2.01-.83,3.98-1.62,5.6-3.13.97-.91,2.13-2.13,3.38-1.93,5.97.95,10.77-3.39,16.16-3.65,7.08-.34,12.11-4.97,18.37-6.78,1.24-.4,1.91.32,2.46,1.26,1.33,1.97,3.02,3.59,4.93,5,1.77,2.54,4.45,4.3,6.07,6.97Z"/><path class="cls-5" d="m303.18,85.95c1.64,1.68,3.29,3.36,4.93,5.04.69,1.92,4.03,2.48,2.8,5.4-.72.44-1.55.8-2.35.68-5.96-.88-10.38,2.48-14.99,5.33-2.19-.19-4.14.3-6.18,1.3-3.85,1.88-7.84,3.45-12.25,3.8-3.64.29-6.94,1.36-9.85,4.09-5.21,4.9-12.04,6.76-18.81,8.41-1.93.47-4.13.34-5.62,1.74-7.39,6.94-17.09,9.03-26.03,12.81-5.46,2.31-9.89,6.51-14.52,10.17-2.67,2.11-4.99,3.72-8.44,2.83-1.93-.5-3.59.19-5.13,1.3-2.45.78-3.66-1.02-4.78-2.53-2.15-2.92-4.79-5.36-7.34-7.89-4.39-4.88-8.61-9.91-13.33-14.48-1.49-1.45-3.06-3.12-2.08-5.6,3.28-1.95,5.85-4.78,8.8-7.08,6.36-4.95,13.19-9.46,21.57-10.39,2.58-.29,4.82-.99,6.59-3.02,1.22-1.39,2.83-2.39,4.6-2.88,6.07-1.7,11.86-4.01,17.47-6.92,2.9-1.5,5.62-2.34,7.43-5.82,2.07-3.97,7.39-3.18,11.27-3.96,3.91-.79,7.1-2.05,10.2-4.57,3.19-2.6,7.01-4.3,11.02-5.62,6.91-2.28,13.59-5.24,20.55-7.4,1.22-.28,1.92.41,2.48,1.34,1.64,1.68,3.28,3.36,4.93,5.04,1.79,2.52,4.42,4.3,6.07,6.93l4.93,5.04c1.79,2.51,4.41,4.3,6.08,6.93Z"/><path class="cls-97" d="m246.22,214.63c.36-.34.7-.96,1.08-.97,6.03-.28,10.84-4.19,16.42-5.54,5.18-1.25,10.27-2.55,15.1-4.76,1.6-.73,3.19-.92,4.84-.39.98.32,2.22.8,2.7-.25,2.04-4.41,5.85-4.22,9.75-4.09,1.56.05,2.88-.76,4.11-1.62.68-.47,1.49-1.67,1.86-1.53,6.99,2.57,11.49-3.74,17.21-5.37,7.53-2.15,15.53-2.94,22.96-6.21,3.16-1.39,7.1-6.21,11.86-2.48,3.8-3.14,9.37-2.62,12.93-5.51,4.06-3.29,8.99-3.16,13.25-5.21,6.44,9.01,5.33,17.98-.18,26.91-1.58,2.71-4.28,4.44-6.05,6.98-1.58,1.37-3.17,2.74-4.75,4.1-6.96,4.96-15.47,5.74-23.24,8.49-10.46,3.69-21.25,6.33-31.61,10.38-4.42,1.73-9.34,2.24-13.78,4.15-5.14,2.2-10.13,4.6-16.05,4.36-2.49-.1-5.16,1.17-7.35,2.82-1.94,1.46-4.09,2.17-6.54,1.74-4.05-1.22-6.16-4.82-9.07-7.43-3.62-5.15-8.65-9-12.74-13.72-1.22-1.41-3.32-2.39-2.73-4.84Z"/><path class="cls-84" d="m32.3,226.39c-6.55-6.04-11.97-13.1-17.81-19.78.26-3.84,2.71-5.83,6-7.2,9.77-4.07,19.48-8.35,29.51-11.74,8.84-2.99,17.4-6.99,25.46-11.2,6.84-3.57,14.78-3.24,20.93-7.99,3.57-2.76,7.72-4.35,12.44-4.04,1.75.11,2.97-1.21,4.22-2.37,3.55-3.29,7.1-6.69,12.66-5.42,1,.23,1.88-.42,2.78-.89,3.63-1.93,7.04-4.42,11.48-4.23,1.79.07,2.37-1.07,1.88-2.65-1.85-6.02-3.34-12.26-7.18-17.38-2.39-3.19-3.86-6.53-4.38-10.4.01-2.22.29-4.16,3.35-3.19.44.18.84.44,1.21.74,1.68,3.13,3.02,6.5,6.02,8.74,1.15,1.45,2.19,3,3.41,4.4,3.76,6.81,7.65,13.55,11.67,20.21,3.32,5.5,3.84,11.94,5.37,18.02.54,2.12-.74,2.84-2.59,3.4-10.63,3.22-20.81,7.49-30.61,12.76-4.63,2.5-9.77,3.97-14.67,5.86-8.87,3.43-18.27,5.67-26.51,10.66-1.58.95-3.14,1.85-4.98,2.18-8.4,1.52-16.1,4.88-23.53,8.98-4.08,2.25-8.44,3.71-13.03,4.77-5.08,1.18-9.3,4.23-13.12,7.75Z"/><path class="cls-89" d="m32.3,226.39c-.31-2.48,1.46-3.28,3.18-4.45,8.22-5.58,18.73-5.74,26.86-11.35,6.42-4.43,14.07-4.94,21.1-7.39,4.4-1.53,7.86-5.7,12.87-6.11,7.08-.58,12.03-6.68,19.53-6.83,3.28-.06,7.34-2.2,10.32-4.32,8.91-6.32,19.29-10.04,29.26-12.94,7.89-2.29,3.69-5.89,3.37-8.59-.77-6.37-3.54-12.28-7.22-17.53-3.33-4.75-5.75-9.92-8.32-15.05,2.48-1.31,3.17.94,4.2,2.22,5.18,6.41,10.15,12.99,15.38,19.37.29.4.55.83.78,1.27,3.83,7.72,8.72,14.85,12.22,22.78,1.7,3.85,1.72,7.73,1.97,11.65.17,2.56-1.68,3.65-4.13,4.07-6.05,1.06-12.22,2.98-17.35,5.67-7.96,4.17-16.26,7.36-24.51,10.54-12.36,4.77-24.63,9.86-36.76,15.07-11.36,4.88-23.45,8.2-34.07,14.88-3.86,2.43-9.08,2.09-12.74,5.3-6.02-5.47-11.13-11.74-15.96-18.25Z"/><path class="cls-60" d="m293.18,101.86c4.86-5.59,11.2-6.69,18.14-5.95,1.78-.57,1.96,1.29,2.95,1.93,1.51,1.8,2.69,3.9,4.82,5.11,1.78,2.54,4.46,4.3,6.07,6.98,1.34,1.96,3.02,3.6,4.94,4.99,1.77,2.55,4.44,4.3,6.07,6.97,1.33,1.98,3.01,3.6,4.93,5,1.05,2.18,4.01,3.02,4.11,5.86-5.17,3.32-10.04,7.23-16.69,7.36-3.31.06-6.29,1.59-9.19,3.1-.72.38-1.46,1.44-2.02,1.33-9.82-2.01-15.73,6.76-24.06,8.57-4.61,1-9.34,1.85-14.01,2.34-2.59.27-4.98.86-6.93,2.05-5.33,3.25-10.83,4.79-17.14,5.07-6.95.3-12.38,5.15-18.37,8.21-2.05,1.05-3.73,2.35-5.58-.05-1.27-2.59.66-3.55,2.35-4.64,2.63-.36,4.58-1.3,3.91-4.52,4.64-6.88,10.94-12.31,16.39-18.48,10.62-12.01,21.89-23.43,32.13-35.79,1.91-2.31,3.47-5.37,7.18-5.42Z"/><path class="cls-10" d="m275.12,312.3c-1.66,1.68-3.32,3.36-4.97,5.03-1.56,2.7-4.26,4.42-6.02,6.94-1.66,1.68-3.32,3.35-4.98,5.03-1.07,1.55-1.98,3.28-4.14,3.57-3.23-.13-6.22.41-8.76,2.69-1.66,1.48-3.9,1.7-6.02,2.11-3.23.63-5.93,2.94-8.64,3.9-7.31,2.61-11.78,10.17-20.03,10.67-3.37.21-4.51,3.67-7,5.22-3.07.02-3.96-3.16-6.27-4.25-1.4-1.61-2.79-3.23-4.19-4.84-1.21-2.06-2.49-4.03-5.06-4.61-3.36-.77-4.86-3.84-7.25-5.8-.49-.5-.92-1.04-1.31-1.61-.75-1.82-3.28-2.98-2.11-5.53.24-.23.5-.58.78-.59,7.82-.06,12.05-6.38,17.76-10.12.41-.27.79-.81,1.22-.83,5.23-.17,9.26-4.36,14.41-4.42,3.72-.04,6.89-.98,9.44-3.6,3.56-3.66,8.89-3.31,13.06-5.91,2.08-1.29,4.39-2.11,6.38-3.97,2.51-2.34,6.02-3.34,9.39-4.17,4.36-1.08,8.88-1.77,11.47-6.15.43-.72,1.21-1.4,2.03-1.3,6.84.89,10.62-4.4,15.47-7.53.71-.45,1.45-1.13,2.21-1.07,6.16.44,10.2-4.44,15.53-6.04,2.47-.74,2.91-3.63,5.18-4.5,2.63-.69,5.25-.81,7.86.11,2.18,3.19-2.06,3.56-2.48,5.61-1.66,1.67-3.32,3.35-4.98,5.02-1.55,2.71-4.25,4.42-6.02,6.95-1.66,1.68-3.32,3.35-4.98,5.03-1.56,2.7-4.25,4.42-6.02,6.94-1.66,1.68-3.32,3.35-4.98,5.03-1.56,2.7-4.25,4.42-6.02,6.94Z"/><path class="cls-66" d="m2.47,188.69c0-.34,0-.68,0-1.02.56-2.65.56-5.3,0-7.95,1.43-8.01,7.6-12.97,12.27-18.89,1.42-1.8,3.14-3.36,4.72-5.03,4.69-.25,3.26,2.66,2.14,5.24,2.77-.42,3.92-2.78,6.17-3.09.62-.09.93-.22.99-1.16.49-8.07,6.7-11.02,13.43-6.47.55.37,1.09.76,1.81,1.13-.28-1.21-2.62-1.31-1.55-3.04.92-1.48,2.5-2.01,3.9-1.55,6.08,2,11.57-.27,16.86-2.47,6.88-2.86,13.63-5.98,20.79-8.16,2.55-.78,4.91-2.37,4.84-6.06-.05-2.92,2.3-3.69,4.52-1.98,3.59,2.76,6.86,1.49,10.21-.16,1.49-.73,2.92-1.57,4.47-2.17,7.09-2.76,8.84-5.35,8.94-13.12.11-8.34,1.09-16.54,4.21-24.33.71-1.78.95-4.61,4.23-3.63,1.07,1.31.97,2.82.53,4.27-3.04,10.01-1.77,19.98.2,29.95.37,2.47,1.06,4.85,1.69,7.26,2.61,9.87-2.4,17.06-12.63,18.25-.83.1-1.73.04-2.43.48-8.83,5.47-18.89,8.14-28.4,11.97-6.86,2.76-13.29,6.36-20.15,9.08-13.36,5.29-26.9,10.14-39.98,16.12-4.96,2.27-10.39,3.37-15.17,6.22-1.85,1.1-4.33,1.97-6.61.33Z"/><path class="cls-55" d="m248.19,26.1c1.64,1.68,3.28,3.36,4.92,5.03.99,2.36,4.66,3.03,4.08,6.4-7.2,7.3-16.81,10.01-25.99,13.49-2.52.96-4.99,1.81-6.84,3.88-1.52,1.71-3.6,2.31-5.73,2.8-4.83,1.11-9.09,3.67-13.63,5.4-9.26,3.54-17.11,9.96-26.85,12.42-3.33.84-6.56,2.87-9.12,4.87-7.2,5.62-15.76,7.67-24.03,10.44-2.85.96-4.49,4.22-7.91,3.69-1.43-.52-1.8-1.75-2.08-3.04-.2-1.76-.94-3.47-.55-5.29,2.27-10.36,10.28-16.23,17.7-22.58,5.04,1.15,7.61-3.28,11.37-5.03,5.55-2.57,10-7.49,16.56-7.85,5.86-.33,10.08-3.43,13.89-7.52,3.47-3.73,8.19-4.84,12.98-5.55,1.3-.19,3.06.34,3.76-.82,4.08-6.83,13.18-5.22,17.95-10.82.52-.61,1.56-.88,2.34-.58,2.31.89,3.99.23,5.77-1.42,2-1.86,4.9-.2,7.22-1.27,2.32-.04,3.04,1.93,4.21,3.34Z"/><path class="cls-21" d="m48.26,244.64c.31-3.28,3.05-4.1,5.38-4.19,5.62-.21,9.83-3.82,14.27-6.16,6.17-3.24,13.17-3.97,19.05-7.65,8.05-5.03,17.54-6.71,25.97-10.97,6.43-3.25,13.37-5.53,20.18-7.97,5.99-2.14,12.94-3.82,17.53-7.11,6.09-4.36,13.64-3.51,19.06-8.11.25-.21.61-.27.89-.44,1.9-1.13,5.9,1.46,5.89-1.67-.02-3.74.3-7.69-1.4-11.55-3.69-8.36-8.84-15.89-12.84-24.05,2.88-1.36,3.98,1.07,5,2.71,4.79,7.74,10.45,14.91,14.88,22.88,4.63,8.32,1.7,15.76-7.52,23.16-3.21,2.58-6.74,4.89-9.62,7.83-3.89,3.97-9.21,5.97-13.01,10-.67.71-1.78,1.24-2.72,1.1-7.22-1.05-12.8,3.31-18.65,6.06-9.96,4.67-20.39,8.05-30.54,12.17-9.98,4.05-19.89,8.21-29.59,12.86-3.38,1.62-7.73,1.24-10.18,4.79-4.34-4.27-8.72-8.51-12.03-13.68Z"/><path class="cls-45" d="m81.28,282.46c-6.06-5.92-11.43-12.46-16.79-19,.07-1.67.93-2.78,2.43-3.44,9.65-4.29,18.67-10.04,29.14-12.48,2.89-.67,5.66-1.95,7.96-3.99,1.4-1.25,3.03-2.26,4.93-2.07,5.25.53,8.82-3.06,13.01-5.1.99-.48,1.76-1.82,2.93-1.71,5.82.53,10.52-2.86,15.55-4.69,5.71-2.07,10.85-6.03,15.29-10.02,4.85-4.35,10.86-6.99,15.33-11.64,5.22-5.44,11.81-9.65,14.53-17.32,1.18-3.31.67-5.92-.46-9.03-1.47-4.05-5.73-7.21-4.19-12.28,3.05-1.51,4.33,1.04,5.49,2.79,2.28,3.43,4.55,6.95,5.42,11.1.22,1.61-.18,3.22-.09,4.84-.05.47-.15.92-.28,1.37-.82,8.73-5.9,14.74-12.34,20.16-9.89,8.33-18.94,17.58-28.39,26.4-6.93,6.47-14.65,11.95-21.87,18.05-3.59,3.03-6.87,6.29-9.72,9.96-3.5,4.51-7.81,7.23-13.46,8.72-8.44,2.22-17.22,3.87-24.45,9.37Z"/><path class="cls-41" d="m279.23,60.9c-3.68,3.1-8.45,4.29-12.71,5.73-7.6,2.58-14.95,4.84-21.19,10.35-3.93,3.47-9.81,2.58-14.75,3.86-2.48.64-5.1.3-4.54,4.13.3,2.01-1.53,2.37-2.9,2.79-3.92,1.2-8.08,1.84-10.89,5.35-.8,1-2.15.66-3.28.81-3.82.51-8.19,1.11-10.57,3.8-3.24,3.66-7.24,3.9-11.24,5.04-8.31,2.38-16.06,5.86-21.42,13.03-1.75,2.34-4.57,1.72-6.6,3.08-4.23-.44-5.68-4.49-8.64-6.59-1.41-2.13-4.1-3.66-3.19-6.86,2.3-1.99,4.88-3.42,7.94-3.9,3.93-.62,7-3.04,10.16-5.13,7.78-5.16,16.44-8.44,24.95-12.03,1.59-.67,2.83-1.71,4.03-2.85,1.58-1.5,3.29-2.85,5.43-3.42,9.02-2.41,16.81-7.59,25.32-11.19,3.44-1.45,7-4.19,10.17-4.8,10.55-2.05,18.03-9.91,27.82-13.1,1.6-.52,3.05-1.28,4.78-.88,1.04.32,1.73,1.03,2.26,1.93,1.64,1.68,3.28,3.36,4.92,5.04,1.03,2.18,4.06,2.96,4.12,5.83Z"/><path class="cls-93" d="m268.3,48.99c-5.95.85-11.08,3.97-16.01,6.89-3.8,2.25-7.78,5.53-11.54,6.35-7.56,1.66-13.64,5.96-20.54,8.64-4.58,1.77-9.38,3.18-12.94,6.91-.75.78-1.85.37-2.8.48-3.85.46-7.49,1.54-9.93,4.89-1.76,2.41-5.04,1.83-6.85,3.09-5.51,3.83-12.47,4.63-17.6,8.61-6.93,5.38-15,7.95-22.92,11.04-4.25-.49-5.76-4.49-8.65-6.72-.99-1.62-2.64-3.08-1.29-5.26,20.22-9.5,40.44-18.98,60.42-29.03,19.6-9.86,40.73-16.54,59.68-27.88,1.11-.51,1.37.5,1.89,1.05,1.64,1.68,3.28,3.36,4.92,5.04,1.1,2.17,4.03,3.04,4.18,5.89Z"/><path class="cls-30" d="m47.46,123.87c4.45-6.72,10.59-12,15.65-18.21,6.12-7.49,12.86-14.48,19.33-21.69,7.83-5.01,16.85-7.67,25.37-10.69,8.26-2.93,13.86-8.48,20.11-13.44,11.79-9.36,22.72-19.76,33.77-29.97,4.82-4.45,9.82-8.83,14.26-13.74,1.09-1.21,1.95-3.43,4.37-2.06.66.64,1.31,1.28,1.97,1.92-.26,4.63-4.58,6.16-7.13,8.91-9.14,9.83-19.56,18.38-28.5,28.48-3.9,4.41-8.1,8.77-12.96,12.31-5.52,4.02-8.56,9.97-12.03,15.58-3.32,2.83-4.92,6.64-5.83,10.72-.47,2.12-1.24,4.1-1.87,6.14-1.15,3.74-2.83,6.33-7.32,5.53-.63-.11-1.38.12-1.91.49-5.36,3.74-12.19,3.87-17.67,6.78-5.57,2.96-11.73,4.42-17.09,7.79-5.36,3.36-11.87,3.89-17.71,6.18-1.4.55-3.66,1.27-4.82-1.05Z"/><path class="cls-47" d="m244.24,23c-.28.57-.65,1.67-.82,1.64-3.54-.62-6.85-.83-8.61,3.26-.1.23-.76.49-.81.44-4.5-5.28-5.94,1.36-8.88,2.17-5.38,1.47-10,3.33-14.08,7.83-1.89,2.08-7.66.87-11.54,2.54-1.75.75-3.68,1.39-4.37,2.92-1.66,3.65-5.69,4.44-8.17,7.24-1.54,1.75-5.98.95-9.13,1.26-.64.06-1.41-.23-1.93.03-3.42,1.7-5.25,6.4-10.15,5.29-1.12,4.46-6.32,3.7-8.73,6.72-.87,1.09-3.58,3.62-4.8-.43.77-4.78,4.99-7.17,7.76-10.42,4.37-5.13,9.13-9.96,13.63-15.01,5.56-4.55,9.12-10.99,14.77-15.45.27.02.55.06.81.13,2.74-.05,3.67-2.27,4.91-4.11,1.68-1.71,3.35-3.42,5.03-5.12,1.89-2.36,4.54-4.07,5.96-6.84,2.38-3,5.48-4.93,9.1-6.1,2.7-.52,5.39-.52,8.09,0,3.28,1.61,6.24,3.67,8.86,6.21,1.79,2.52,4.42,4.3,6.07,6.94,1.64,1.68,3.28,3.36,4.92,5.04.67,1.3,2.51,1.96,2.12,3.84Z"/><path class="cls-18" d="m270.2,239.57c5.3,1.03,8.25-4.43,13.2-4.77,1.71-.12,3.29-.91,5.2-.39,1.72.47,3.49.23,5.22-.86,5.6-3.51,12.1-4.51,18.24-6.54,5.98-1.98,12.09-3.76,17.93-6.12,2.61-1.05,5.34-1.56,7.94-2.45,10.37-3.55,20.92-6.54,31.41-9.74-.07.3-.13.6-.18.91-1.63,2.66-4.29,4.43-6.07,6.96-1.64,1.67-3.28,3.34-4.92,5.02-1.63,2.66-4.29,4.42-6.07,6.96l-4.93,5.01c-1.63,2.66-4.29,4.42-6.06,6.96-.93.7-1.85,1.4-2.78,2.1-7.44,2-14.18,5.8-21.76,7.65-6.85,1.67-13.5,4.43-20.13,7-2.81,1.09-5.6,2.02-8.62,2.14-2.01-.18-3.11-1.61-4.22-3.03-3.02-3.66-6.69-6.69-9.85-10.21-1.68-1.88-3.9-3.57-3.53-6.58Z"/><path class="cls-46" d="m121.26,80.95c1.77-6.11,5.65-10.96,10.28-14.92,7.41-6.34,13.89-13.53,20.7-20.43,7.13-7.21,14.84-13.84,21.81-21.19,2.7-2.85,6.32-4.82,8.24-8.41,1.33,1.69,2.66,3.39,3.99,5.08-5.93,4.72-11.87,9.51-16.43,15.59-4.29,5.72-9.91,10.13-15.01,14.89-6.62,6.18-11.42,14.1-19.01,19.24-5.27,2.88-6.98,8.35-9.61,13.15-.24.41-.56.74-.96.99-4.71,4.14-4.5,10.15-6.04,15.52-1.95,6.83.82,14.28-2.87,20.85-.23.41-.08,1.04-.31,1.45-1.3,2.33-17.98,9.55-20.49,8.83-.56-.16-1.02-.75-1.47-1.2-1-1-1.7-2.93-3.51-1.96-2.13,1.14.34,2.72.06,3.66-.74,2.46-2.94,4.47-5.24,5-10.21,2.37-18.97,8.49-29.14,10.9-3.18.75-6.16,2.14-9.4-.03-.93-.62-2.62-.47-3.66.74-.25,1.03.56.98,1.15,1.06,1.11.15,2.49-.16,2.75,1.45.14.87-.33,1.62-1.11,2.06-1.46.84-2.36.02-3.45-.95-4.74-4.26-7.12-4.45-11.54-.56-1.47,1.29-4.33,3.33-.09,5.07,1.34.55,1.01,2.24.39,2.08-4.52-1.21-6.47,4.16-10.51,3.81-.62-.05-1.23-.23-1.93-.37-.22-2.35,6.6-3.95.61-6.55,1.53-3.37,5.11-4.95,7-8.01,1.77-.9,3.1-2.22,3.79-4.11.67-.66,1.33-1.33,2-1.99,2.45.79,4.79,1.37,6.69-1.23.91-1.25,2.44-1.67,3.94-1.93,4.26-.72,8.46-1.35,11.4-5.22,1.2-1.58,3.56-1.58,5.57-1.77,7.74-.71,14.96-2.92,21.41-7.39,1.64-1.14,3.45-2.12,5.47-2.26,3.23-.22,6.05-.11,6.67-4.73.37-2.74,2.91-1.26,4.13.12,1.5,1.7,2.55,2.26,4.3.21,4.13-4.84,5.39-4.91,11.48-1.2,1.74-4.53.26-9.25,1.09-13.66,1.41-7.47,1.33-15.5,6.86-21.69Z"/><path class="cls-4" d="m180.32,14.07c-5.11,4.5-10.12,9.08-14.82,14.02-3.75,3.94-7.93,7.47-11.99,11.11-5.87,5.25-11.74,10.48-17.45,15.9-5.39,5.11-11.5,9.83-17.71,14.16-1.37.96-2.75,1.78-3.53,3.39-.33.68-1.3,1.68-1.76,1.57-6.8-1.56-11.12,4.27-16.8,5.47-4.81,1.02-8.84,4.14-13.82,4.28,5.19-6.09,10.29-12.25,15.57-18.26,8.74-9.94,17.6-19.78,26.41-29.66,5.42-.57,10.26-3.21,15.54-4.26,1.14-.23,2.39-.23,3.3-.98,4.33-3.58,9.44-5.98,14-9.04,5.71-3.83,11.75-7.41,16.97-12.02.52-.45,1.1-.72,1.8-.6,1.42,1.64,2.85,3.27,4.27,4.91Z"/><path class="cls-54" d="m2.47,188.69c9.15-2.14,17.36-6.77,26.22-9.7,4.56-1.51,8.94-3.34,12.63-6.57,1.62-1.41,3.85-.59,5.78-1.06,8.83-2.14,17.11-6.16,24.9-10.22,6.65-3.47,13.63-6.01,20.43-8.66,7.06-2.75,13.67-6.21,20.54-9.21,2.56-1.12,5.79.02,8.61-2.14,5.62-4.3,7.12-7.6,5.06-14.51-.76-2.55-1.69-5.03-1.37-7.76,2.59-.13,3.25,2.09,4.14,3.71,2.54,4.66,4.78,9.5,7.07,14.29,2.19,4.58,1.05,8.37-3.66,10.32-10.37,4.31-19.96,10.42-31.13,12.94-7.58,1.71-14,6.44-21.13,9.42-2.46,1.03-4.69,2.45-7.46,2.5-2.58.05-4.87,1.02-7,2.4-2.27,1.46-4.72,2.51-7.37,2.98-3.49.61-6.12,2.37-8.13,5.27-2.07,2.98-4.74,4.64-8.55,3.36-.97-.32-2.01-.34-2.89.26-5.6,3.85-12.4,4.49-18.51,6.92-4.26,1.69-7.61,5.33-12.33,6.23-3.02-3.01-4.65-6.77-5.83-10.77Z"/><path class="cls-69" d="m81.28,282.46c2.34-4.09,6.57-5.94,10.59-6.78,5.84-1.23,11.35-3.44,17.15-4.76,6.83-1.55,9.44-8.49,14.1-12.85,6.25-5.85,13.09-10.96,19.71-16.36,4.47-3.65,8.78-7.52,13.01-11.46,5.49-5.1,10.82-10.37,16.24-15.54,5.55-5.28,11.79-9.79,16.03-16.46,1.96-3.09.29-7.01,3.14-9.57,2.68,3.88,1.94,7.83-1.68,12.95-5.89,8.31-13.59,14.88-20.62,22.11-10.48,10.79-21.32,21.24-32.07,31.75-6.8,6.64-11.74,14.13-15.98,22.36-2.09,2.63-2.07,5.84-2.34,8.91-.33,3.79-.65,7.57-2.13,11.12-.61,1.46-.66,2.91-.1,4.33,1.52,3.9-.49,5.64-3.97,6.15-2.43.36-4.2,1.73-6.08,3.03-8.33-9.65-16.66-19.29-24.99-28.94Z"/><path class="cls-95" d="m181.24,169.73c-.02,4.61,3.09,8.04,5.1,11.68,3.48,6.33.94,11.49-2.53,15.88-5.11,6.46-11.28,12.17-17.96,17.02-7.56,5.49-14.75,11.81-22.87,16.09-4.44,2.34-9.65,5.83-15.59,5.17-2.13-.23-3.37,1.32-5.01,2.17-3.76,1.95-7.06,5.52-11.95,4.86-2.04-.27-3.85.09-5.46,1.7-3.3,3.28-7.67,4.18-12.02,5.37-4.56,1.24-9.22,2.86-13.18,5.36-4.95,3.13-10.89,4.39-15.27,8.44-1.4-1.72-2.8-3.43-4.2-5.15.14-1.55-.49-3.46,2.07-3.77,7.79-.95,14.26-5.4,21.19-8.47,6.08-2.69,12.46-4.58,18.41-7.5,8.97-4.4,18.91-6.33,27.73-11.32,3.91-2.22,8.55-3.43,12.45-5.95,1.34-.87,2.49-.39,3.77.03,1.83.6,3.85.53,5.23-.75,5.66-5.24,12.66-8.85,17.88-14.59,2.95-3.24,7.36-4.35,10.02-8.36,4.85-7.31,5.55-11.27.84-18.54-4.81-7.43-9.73-14.78-14.54-22.21-.78-1.2-1.59-2.1-3.1-2.12,0-.33,0-.66,0-1-3.02-5.53-7.44-10.03-11.12-15.08-5.26-7.21-10.91-14.14-14.73-22.29-1.78-3.8-2.74-7.8-3.31-11.91-.24-1.73-.89-3.69,1.29-4.83,1.95.3,2.1,1.99,2.37,3.36,1.21,6.14,4.21,11.38,7.94,16.27,4.91,8.37,11.4,15.49,17.97,22.54,5.13,7.9,11.94,14.51,17.23,22.28,1.17,1.72,3.16,3.2,1.35,5.62Z"/><path class="cls-54" d="m8.31,199.45c2.53-3.83,7.27-5.45,10.72-6.86,4.08-1.67,8.47-4.41,13.41-4.2.46.02.97-.22,1.41-.44,3.63-1.86,6.58-5.18,11.67-2.69,1.94.95,3.82-2.79,5.17-4.74,1.56-2.25,3.38-3.38,5.99-3.9,3.39-.67,6.84-1.4,9.56-3.84.36-.32.86-.62,1.32-.67,7.17-.73,13.13-4.75,19.71-7.08,2.18-.77,3.98-1.18,5.76-3.07,2.89-3.07,7.51-3.16,11.43-3.79,2.15-.35,4.51-.71,6-1.75,6.56-4.56,14.28-6.45,21.33-9.84,3.8-1.82,5.97-4.61,4.01-8.2-3.55-6.48-5.46-13.86-10.52-19.52-2.95-9.62-3.34-19.34-.77-29.09.42-1.61.86-3.16.77-4.83,0-.33,0-.67,0-1,1.16-1.38,2.16-3.16,4.42-1.71.83,1.66.36,3.31-.3,4.81-5.06,11.6-2.09,22.73,1.87,33.81.23,5.74,4.66,9.47,6.96,14.22,2.3,4.73,3.48,9.79,5.38,14.62.98,2.49-.83,4.21-3.01,3.55-5.03-1.51-8.03,1.92-11.54,4.05-1.02.62-1.67,1.5-2.99.9-5.22-2.35-8.69,1.28-11.62,4.26-2.18,2.22-4,3.78-7.06,3.38-5.69-.73-9.25,3.94-14.06,5.49-1.14.37-2.23,1.29-3.51,1.7-4.5,1.44-9.01,2.77-13.42,4.52-10.39,4.12-20.27,9.44-30.95,13.06-8.07,2.73-16.13,6.15-24.07,9.57-3.2,1.38-5.01,3.86-6.89,6.45-2.11-2.34-3.29-5.48-6.18-7.16Z"/><path class="cls-59" d="m121.26,80.95c-3.61,9.11-6.52,18.35-5.44,28.38.17,1.59-.31,3.26-.57,4.87-.25,1.52.89,3.66-1.26,4.36-1.83.59-2.27-1.48-3.29-2.47-2.31-2.24-6.28-1.67-7.24,1.28-.56,1.73-1.6,2.18-2.86,2.98-1.91,1.21-3.03,2.11-3.1-1.3-.02-1.13-1.39-2.58-3.2-2.57.79,5.27-.31,6.49-5.99,6.37-2.7-.06-4.94,1.14-6.89,2.58-6.5,4.81-13.92,6.72-21.77,7.36-2.82.23-5.19.82-6.66,3.51-2.1,3.84-6.34,2.04-9.43,3.36-1.45.62-3.24.25-4.22,2.04-2.31,4.18-4.73,3.37-7.1,0,3.52-7.26,10.25-11.79,15.21-17.82,5.11,1.68,9.06-1.84,13.45-3.15,8.55-2.56,16.35-6.93,24.41-10.63,3.31-1.52,7.41-4.25,11.93-3.37,1.62.32,2.9-.6,3.93-1.74,1.17-1.29,2.76-2.54,4.22-2.43,8.08.58,7.67-5.98,9.35-10.72,1.45-4.08,1.63-8.87,6.52-10.87Z"/><path class="cls-7" d="m176.05,9.17c-1.48,2.77-4.09,4.17-6.75,5.51-6.2,3.12-10.1,9.97-17.7,10.87-.55.07-1.06.76-1.52,1.22-7.08,7.14-16.01,9.18-25.65,9.29,5.42-6.3,10.8-12.63,16.27-18.89,3.13-3.58,6.27-7.16,9.6-10.55,8.15-8.26,18.82-7.15,25.75,2.55Z"/><path class="cls-82" d="m204.21,357.37c1.96-3.3,3.54-6.12,8.53-6.6,4.03-.39,8.39-3.02,11.21-6.82.39-.52.89-1.5,1.22-1.45,5.6.74,7.71-6.43,13.24-5.74,5.14.64,8.08-4.38,12.79-4.97,1.49-.19,2.9-.9,4.05.63.45,1.73-1.13,2.21-1.94,3.17-1.25.64-2.89.89-2.93,2.8-.74.96-1.48,1.92-2.23,2.88-1.56,2.7-4.26,4.42-6.02,6.94-1.66,1.68-3.32,3.35-4.98,5.03-1.56,2.7-4.26,4.42-6.01,6.94-1.82,1.63-3.48,3.52-5.5,4.85-6.75,4.47-14.14,2.71-20.54-4.68-.26-1.01-1.43-1.74-.89-2.99Z"/><path class="cls-25" d="m287.21,258.52c9-2.48,17.88-5.33,26.41-9.17,3.2-1.44,7.4.16,9.95-2.25,4.32-4.08,9.72-3.42,14.74-4.5-.72.97-1.43,1.94-2.15,2.92-1.63,2.66-4.29,4.43-6.07,6.95l-4.92,5.02c-1.63,2.66-4.29,4.43-6.07,6.95-2.1,1.24-3.31,3.32-4.81,5.13-1,.61-1.18,2.5-2.96,1.92-3.04,0-6.08,0-9.13.01-3.4,1.44-5.51-1.04-7.75-2.72-1.95-1.46-3.61-3.29-5-5.32-.72-1.65-2.88-2.66-2.23-4.93Z"/><path class="cls-86" d="m131.26,120.85c-4.93-6.27-5.47-13.76-5.97-21.28-.41-6.29,3.32-11.6,3.97-17.62-1.18-1.16-.95-2.5-.11-3.59,2.1-2.74,3.52-5.99,6.11-8.38,4.02-4.21,8.55-7.8,11.85-12.85,2.67-4.08,6.96-7.47,10.68-10.49,7.48-6.08,13.03-13.73,19.77-20.33,2.48-2.42,5.68-3.71,8.73-5.23.7.65,1.4,1.3,2.1,1.95-3.77,6.14-8.58,11.37-14.01,16.07-4.05,2.42-6.94,6.16-10.02,9.52-6.16,6.72-12.93,12.84-18.9,19.71-7.51,8.65-14.66,17.53-14.68,29.92,0,3.87.79,7.5,1.86,11.18.89,3.06,3.11,5.96,1.62,9.44-1.67-.34-3.45-.85-3,2Z"/><path class="cls-72" d="m151.24,362.3c-6.45-6.58-12.6-13.41-18.06-20.83-.58-3.26,4.76-1.51,3.94-4.31-.56-1.92-3.02-3.43-2.96-5.56.18-5.78-3.49-10.07-5.09-15.11-1.22-3.86-4.9-7.64-2.03-12.27,2.2-.36,2.82,1.39,3.6,2.8,3.21,5.78,6.77,11.36,9.75,17.28,2.22,4.41,5.89,7.89,8.19,12.26.38.22.7.52.96.86.31,1.03.83,1.95,1.58,2.74,1.89,3.34,2.19,7.14,3.17,10.74.26.96.73,1.76,1.44,2.51,3.97,4.22,3.77,5.24-1.39,7.4-1.07.45-2,1.15-3.1,1.5Z"/><path class="cls-2" d="m106.27,311.4c.46-4.5,4.36-3.68,7.11-4.43,1.93-.53,3.16-1,2.1-3.27-1.24-2.65-.81-4.98.23-7.84,1.53-4.21,2.29-8.93,2.16-13.4-.07-2.59,1.77-3.28,2.38-4.98.81-1.13,1.39-2.62,3.26-2.16,1.88,1.76,1.26,3.75.84,5.94-1.56,8.23-3.73,16.45-.96,24.88.51,1.57,1.04,3.12,1.64,4.66,1.24,3.17,3.17,6.05,2.61,9.86-.21,1.46.55,3.54,2.06,4.83.84.72,2.13,1.46,1.29,2.79-.71,1.13-2.08.9-3.19.65-1.83-.41-3.2.43-4.56,1.42-5.66-6.32-11.33-12.64-16.99-18.96Z"/><path class="cls-68" d="m123.26,330.36c.58-6.21,4.87-1.19,7.52-2.56-3.38-2.5-5.08-5.39-4.09-9.85.41-1.83-1.46-4.27-2.53-6.31-5.33-10.23-3.15-20.69-.84-31.07.41-1.87.44-3.4-.06-5.1,1.26-1.41,1.48-4.15,4.41-3.43,2.11,2.28.07,4.24-.52,6.29-.93,3.22-3.08,6.31-.88,9.8.68,5.4,3.13,10.69.98,16.26-.23,4.38,1.02,8.69,3.17,12.12,2.19,3.5,2.24,7.87,5.27,10.89,1.06,1.06-.66,2.08-.7,3.11-.03.86,1.04,1.75,1.02,2.62-.07,2.6,4.56,2.59,3.2,5.38-1.06,2.18-4.41,1.07-6.03,2.93-3.92-3.16-7.01-7.05-9.93-11.1Z"/><path class="cls-78" d="m151.24,362.3c-.08-2.31,1.49-2.51,3.26-2.72,1.28-.15,2.67-.52,3.05-2.1.41-1.7-.85-2.69-2.03-2.9-3.68-.67-.92-6.02-4.84-6.32.94-.84,1.88-1.68,2.9-2.59-1.62-1.46-5.48-1.61-3.33-5.34-1.14-.73-.32-2.11-1-2.99-2.45-2.68-3.56-6.24-5.99-8.97-1.13-1.27-1.39-3.02.47-4.25,3.81.86,4.68,4.55,6.29,7.18,3.08,5.02,6.63,9.72,9.9,14.58,3.93,5.84,6.01,12.44,9.4,18.44-5.86,4.52-11.87,3.56-18.09-2.01Z"/><path class="cls-70" d="m176.3,358.3c-.67.67-1.33,1.33-2,2-3.6-.11-4.93-3.19-6.46-5.49-4.96-7.43-10.12-14.68-15.5-21.82-8.65-11.49-18.43-22.43-21.74-37.09-1.78-6.65.17-12.95,1.88-19.24.47-1.74,1.44-3.35,3.68-3.37,1.44,1.4,1.07,2.96.43,4.55-1.84,3.8-.9,7.79-.8,11.72.1.47.14.95.15,1.43-.23,8.77,4.09,16.09,8.69,22.78,7.92,11.5,16.41,22.64,25.25,33.49,2.69,3.31,5.24,6.81,6.4,11.05Z"/><path class="cls-31" d="m132.26,296.43c1.95,10.4,8.45,18.32,14.16,26.8,5.54,8.22,12.41,15.38,17.7,23.84,2.86,4.57,5.25,10.04,10.18,13.23-1.38,1.68-2.43,3.76-4.97,4-4.37-2.12-4.03-6.95-5.99-10.45-5.73-10.25-13-19.48-19.09-29.49-8.36-6.99-13.66-15.63-14.52-26.69.54-1.02,1.29-1.62,2.52-1.25Z"/><path class="cls-100" d="m176.3,358.3c-3.69-5.02-7.09-10.28-11.15-14.99-4.57-5.29-8.66-10.99-12.68-16.6-7.1-9.9-15.53-19.32-17.54-32.07-.17-1.06-.66-2.23.33-3.21,1.98-.24,1.86,1.47,2.38,2.57,1.86,3.88,2.52,8.29,5.15,11.83,6.53,11.26,15.26,20.89,23.29,31.03,4.53,5.72,8.78,11.66,13.23,17.44-1,1.33-2.01,2.66-3.01,3.99Z"/><path class="cls-83" d="m184.09,349.3c-.06,1.14-.95,1.57-1.78,2.03-3.97.07-5.34-3.28-7.18-5.74-3.04-4.05-5.89-8.22-9.8-11.52-.35-.33-.65-.7-.9-1.1-3.88-5.67-8.09-11.08-12.47-16.37-1.98-2.39-3.87-4.9-2.85-8.35,3.39-.98,4.1,2.08,5.52,3.83,4.26,5.24,7.65,11.19,12.86,15.66,5.08,7.53,11.88,13.76,16.6,21.57Z"/><path class="cls-27" d="m179.31,354.32c-2.08,0-2.67-1.88-3.57-3.1-10.43-14.11-22.54-26.94-32.06-41.74-.63-.97-1.45-1.81-1.43-3.07-.28-.27-.37-.54-.26-.79.1-.26.2-.38.3-.38,2.06-.17,2.79,1.48,3.69,2.79,5.99,8.77,13,16.76,19.27,25.32,6.18,5.64,9.45,13.72,16.07,18.98-.67.66-1.34,1.33-2,1.99Z"/><path class="cls-98" d="m184.09,349.3c-6.54-6.24-12.23-13.16-16.84-20.94-.76-.81-.87-1.72-.4-2.71,1.51-1.2,2.02.28,2.68,1.07,2.12,2.56,4.41,4.95,7.02,7.03,3.45,4.05,5.67,9.06,9.79,12.6-.74.99-1.49,1.97-2.23,2.96Z"/><path class="cls-11" d="m181.32,352.32c-5.75-1.74-7.94-7.1-10.79-11.42-1.69-2.57-5.05-4.04-5.28-7.56,4.65,1.52,6.38,5.93,9.08,9.31,2.47,3.09,4.5,6.53,7.98,8.68-.33.33-.66.66-.99.99Z"/><path class="cls-49" d="m186.32,346.34c-5.95-1.83-7.07-7.7-10.08-12-.24-.26-.33-.52-.25-.78.08-.26.16-.39.24-.39,1.02-.29,1.75.21,2.43.87,1.05,1.39,1.86,2.96,3.17,4.16,1.37,2.73,4.51,4.13,5.49,7.16l-1,.99Z"/><path class="cls-79" d="m182.28,337.18c2.3,2.07,4.6,4.13,6.91,6.2.38.21.49.4.35.57-.13.16-.27.25-.41.25-.27.06-.54.12-.82.16-3.36-.67-4.96-3.28-6.54-5.91-.05-.51.12-.93.5-1.27Z"/><path class="cls-19" d="m182.23,338.34c1.66,2.38,3.64,4.44,6.09,6.03-.33.33-.66.66-.99.99-2.48-1.95-5.3-3.6-6.09-7.01.33-.36.66-.34.99,0Z"/><path class="cls-52" d="m204.21,357.37c.45.95,1.18,1.82.89,2.99-2.47-2.19-5.03-4.28-6.8-7.13,2.78.23,3.68,3.12,5.91,4.14Z"/><path class="cls-6" d="m374.08,204.59c.91-3.28,3.73-4.92,6.05-6.98-.68,3.48-3.48,5.13-6.05,6.98Z"/><path class="cls-39" d="m369.14,157.8c-2.35-2.04-5.15-3.69-6.06-6.97,2.57,1.85,5.35,3.52,6.06,6.97Z"/><path class="cls-42" d="m363.08,216.56c.93-3.27,3.7-4.94,6.07-6.96-.73,3.44-3.49,5.13-6.07,6.96Z"/><path class="cls-104" d="m352.08,228.53c.92-3.27,3.7-4.94,6.07-6.96-.73,3.44-3.49,5.12-6.07,6.96Z"/><path class="cls-92" d="m341.09,240.51c.92-3.28,3.7-4.94,6.06-6.96-.73,3.44-3.49,5.12-6.06,6.96Z"/><path class="cls-90" d="m319.09,264.44c.93-3.27,3.7-4.93,6.07-6.95-.74,3.43-3.49,5.12-6.07,6.95Z"/><path class="cls-67" d="m358.15,145.83c-2.35-2.04-5.16-3.68-6.07-6.97,2.57,1.85,5.35,3.52,6.07,6.97Z"/><path class="cls-73" d="m311.33,271.49c.99-.64,1.97-1.28,2.96-1.92-1.03,3.2-3.53,5.08-6.18,6.83.11-2.26,2.38-3.12,3.22-4.91Z"/><path class="cls-99" d="m345.2,132.74c-1-2.21-3.88-3.11-4.11-5.86,2.56,1.86,5.35,3.52,6.06,6.98-.65-.37-1.3-.75-1.95-1.12Z"/><path class="cls-108" d="m330.09,252.47c.93-3.27,3.7-4.94,6.07-6.95-.74,3.44-3.49,5.12-6.07,6.95Z"/><path class="cls-101" d="m297.11,288.36c.93-3.25,3.72-4.88,6.02-6.94-.69,3.46-3.44,5.13-6.02,6.94Z"/><path class="cls-85" d="m336.16,121.89c-2.36-2.03-5.16-3.68-6.07-6.97,2.57,1.85,5.34,3.52,6.07,6.97Z"/><path class="cls-24" d="m286.12,300.33c.93-3.24,3.72-4.88,6.02-6.94-.69,3.45-3.44,5.12-6.02,6.94Z"/><path class="cls-35" d="m325.16,109.92c-2.36-2.04-5.17-3.68-6.07-6.98,2.58,1.84,5.36,3.51,6.07,6.98Z"/><path class="cls-103" d="m268.3,48.99c-1.03-2.22-3.9-3.14-4.18-5.89,2.59,1.82,5.31,3.53,6.07,6.94-.63-.35-1.26-.7-1.89-1.05Z"/><path class="cls-24" d="m275.12,312.3c.93-3.24,3.72-4.88,6.02-6.94-.69,3.45-3.44,5.12-6.02,6.94Z"/><path class="cls-74" d="m314.27,97.84c-.98-.64-1.97-1.29-2.95-1.93-.83-1.8-3.11-2.65-3.21-4.92,2.62,1.78,5.17,3.61,6.16,6.85Z"/><path class="cls-52" d="m264.13,324.28c.93-3.24,3.72-4.88,6.02-6.94-.7,3.44-3.44,5.12-6.02,6.94Z"/><path class="cls-74" d="m303.18,85.95c-2.38-2-5.14-3.67-6.08-6.93,2.59,1.82,5.3,3.53,6.08,6.93Z"/><path class="cls-109" d="m380.14,169.78c-2.34-2.05-5.15-3.69-6.06-6.98,2.57,1.85,5.34,3.52,6.06,6.98Z"/><path class="cls-91" d="m205.09,7.07c-.56,3.52-3.32,5.13-5.96,6.84,1-3.14,3.72-4.78,5.96-6.84Z"/><path class="cls-34" d="m237.2,14.12c-2.38-2-5.15-3.67-6.07-6.94,2.59,1.82,5.3,3.53,6.07,6.94Z"/><path class="cls-80" d="m244.24,23c-.62-1.33-2.12-2.17-2.12-3.84,2.59,1.82,5.31,3.53,6.07,6.94-1.32-1.03-2.63-2.07-3.95-3.1Z"/><path class="cls-36" d="m242.13,348.22c.92-3.25,3.72-4.88,6.02-6.94-.69,3.45-3.44,5.12-6.02,6.94Z"/><path class="cls-81" d="m292.18,73.98c-2.38-2-5.13-3.67-6.07-6.93,2.59,1.82,5.31,3.52,6.07,6.93Z"/><path class="cls-57" d="m279.23,60.9c-1.01-2.2-3.86-3.1-4.12-5.83,2.59,1.82,5.3,3.53,6.07,6.93-.65-.37-1.3-.74-1.95-1.11Z"/><path class="cls-22" d="m259.19,38.07c-.63-.35-1.26-.7-1.89-1.05-1.03-2.22-3.9-3.14-4.18-5.89,2.59,1.82,5.31,3.52,6.07,6.94Z"/><path class="cls-36" d="m231.14,360.19c.92-3.25,3.72-4.88,6.01-6.94-.69,3.45-3.44,5.12-6.01,6.94Z"/><path class="cls-33" d="m253.14,335.34c.7-.97,1.4-1.94,2.11-2.91,1.3-1.04,2.6-2.08,3.91-3.12-.7,3.44-3.44,5.11-6.01,6.93-.31-.2-.41-.4-.31-.6.1-.2.2-.3.3-.3Z"/><path class="cls-36" d="m189.13,344.2c.05-.27.07-.55.06-.82,2.86.48,4.6,2.05,4.92,5.01-1.66-1.4-3.32-2.79-4.98-4.19Z"/><path class="cls-59" d="m30.25,143.68c.27,2.78-.85,4.28-3.79,4.11.63-1.95,2.28-2.97,3.79-4.11Z"/><path class="cls-77" d="m194.1,19.04c-.55,2.66-1.43,4.93-4.91,4.11,1.64-1.37,3.27-2.74,4.91-4.11Z"/><path class="cls-10" d="m253.14,335.34c.05.3.05.6,0,.9-.92.72-1.84,1.44-2.76,2.16-2.18-3.8,2-1.89,2.76-3.06Z"/><path class="cls-103" d="m222.27.98c-2.7,0-5.39,0-8.09,0,2.7-1.31,5.39-1.3,8.09,0Z"/><path class="cls-50" d="m2.47,179.72c1.32,2.65,1.32,5.3,0,7.95,0-2.65,0-5.3,0-7.95Z"/><path class="cls-48" d="m135.39,277.49c1.53-1.03.62-2.68,1.03-3.99-.3-1.83.72-3.25,1.78-4.44,5.58-6.25,10.98-12.67,17-18.52.83-.81,1.81-1.44,3.07-1.38,3.43.65,6.91-1.13,10.34.2.2.08.44-.02.48-.07,2.89-3.35,7.05-4.6,10.67-6.75,4.13-2.45,7.42-5.91,12.59-6.98,3.93-.81,7.53-3.44,11.09-5.41,6.07-3.38,12.51-5.8,18.75-8.73,2.65-1.24,4.6-4.03,7.98-3.71,1.3-4.8,4.58-2.87,7.77-2.7,2.31.12,4.3-3.37,7.27-1.38.34.33.67.67,1.01,1,3.73,3.92,7.41,7.89,11.22,11.72,1.87,1.88,3.78,3.68,4.79,6.2-5.27,3.26-10.1,7.38-16.18,9.08-2.97.83-5.29,2.44-7.85,3.98-4.79,2.9-9.45,5.93-13.96,9.24-1.74,1.28-3.87.39-5.83.13-3.29-.43-6.35-.56-7.5,3.66-.52,1.89-2.44,2.59-4.15,3.3-1.17.48-2.67.3-3.26,1.9-.98,2.65-2.7,1.88-4.35.74-2.41-1.67-4.31-1.4-5.71,1.29-.46.89-.93,1.99-1.92,2.18-5.1.97-8.5,4.93-12.55,7.55-2.25,1.46-4.75.5-6.15,1.79-5.71,5.23-14.5,4.12-19.76,9.62-3.07,3.21-6.51,4.85-10.61,5.7-1.73.25-2.77-.81-3.76-1.97-1.2-1.89-2.64-3.66-3.29-5.86.23-2.47-1.55-4.95-.02-7.42Z"/><path class="cls-1" d="m293.18,101.86c-8.16,6.84-13.83,15.96-21.47,23.33-5.22,5.03-9.7,10.82-14.6,16.19-6.25,6.84-12.59,13.59-18.89,20.38-.49,2.34-1.78,4.03-4.01,4.98-1.58.89-2.91,1.97-3,3.98-2.69,1.57-2.28,4.89-3.99,7.01-4.69,2.71-8.87,6.28-14.04,8.17-1.31-1.21-.98-3.06-1.76-4.49-.88-1.77-1.54-3.66-2.71-5.29-1.18-2.37-3.35-3.94-4.92-6-.5-.72-.96-1.47-1.54-2.14-5.05-4.81-9.58-10.11-14.21-15.3-.96-1.07-2.33-2-1.83-3.79.36-3.37,2.79-3.56,5.13-2.83,3.18,1,4.96.21,7.72-2,6.61-5.28,13.31-10.54,21.71-13.37,6.24-2.09,13.14-3.42,17.88-8.95,1.72-2.01,4.4-2.46,7.11-3.03,7.67-1.6,15.31-3.59,20.65-10.14,2.08-2.55,5.51-1.92,8.17-2.37,4.87-.83,9.46-1.79,13.61-4.58,1.58-1.06,3.4-1.28,4.99.25Z"/><path class="cls-51" d="m213.23,185.7c4.23-3.42,8.22-7.24,13.99-7.98,0,.67-.01,1.34-.02,2-.8,2.65-.8,5.31,0,7.96.42,5.21,3.11,9.26,6.52,13,3.89,4.26,7.66,8.62,11.48,12.94-1.76-.17-3.55.27-4.64,1.46-2.99,3.25-5.34,2.51-8.04-2.02.28,3.78,2.27,7.43-3.5,6.02-2.05-.5-5.06,2.37-7.47,3.95-3.64,2.37-8.45,2.23-11.7,4.83-3.75,3-8.3,3.86-12.21,6.16-2.65,1.56-4.66,4.46-8.34,2.88-1.44,3.74-6.66,2.7-8.16,6.44-.35.88-1.48,2.35-1.65,2.27-5.13-2.41-6.2,2.57-8.85,4.66-.72.57-2.31,1.2-2.68.87-2.71-2.36-5.27-.91-7.9-.06-1.43.46-1.67-.57-1.84-1.61-.44-2.49,1.24-4.09,2.68-5.56,9.03-9.24,17.44-19.06,26.32-28.44,5.01-5.29,9.74-10.84,14.78-16.1.78-1.09,1.63-2.13,2.58-3.08.76-.77,1.53-1.51,2.27-2.29,1.36-1.32,2.55-2.75,3.15-4.59.36-1.01.71-2.02,1.23-2.97.22-.38.51-.71.85-.99.44-.19.82-.1,1.15.25Z"/><path class="cls-1" d="m227.2,187.68c-1.51-2.65-1.51-5.31,0-7.96,0,2.65,0,5.31,0,7.96Z"/><path class="cls-20" d="m151.29,111.69c2.62,2.4,5.24,4.79,7.86,7.19,4.37,7.12,11.59,11.79,16.15,18.76.43.62.55,1.28.28,2-.34.36-.76.53-1.26.51-1.21-.37-2-1.26-2.74-2.21-5.34-5.78-10.02-12.17-16.12-17.25-2.11-2.02-4.18-4.08-4.99-7.02-.01-.78.19-1.47.82-1.99Z"/><path class="cls-37" d="m175.25,139.79c.01-.72.03-1.43.04-2.15,4.51,2.9,6.62,8.12,10.91,11.24,5.69,6.26,11.38,12.51,17.07,18.77.41,1.88-.9,1.29-1.64.99-1.53-.63-2.57-1.95-3.74-3.08-1.07-1.14-2.2-2.22-3.53-3.08-2.04-2.07-4.58-3.67-6-6.32-1.65-3.62-4.84-5.86-7.63-8.46-.52-.44-.94-.96-1.26-1.55-.76-2.55-3.59-3.74-4.23-6.37Z"/><path class="cls-43" d="m142.23,292.53c.08-.32.14-.9.26-.92,7.28-.87,10.63-8.76,17.55-9.94,4.47-.77,8.34-2.1,11.31-5.6.2-.23.63-.48.87-.42,6.19,1.54,9.2-3.9,13.46-6.37,2.77-1.61,6.73-1.8,7.92-6.14.44-1.6,3.46-2.45,5.52-.29.84.88,1.53,2.16,2.94,2.06,1.65-1.61-1.23-2.37-.16-3.87,4.05.28,7.62.15,8.74-5.5.72-3.61,4.96-2.27,7.36-1.82,3.53.65,5.89.32,8.79-2.21,4.11-3.59,9.08-6.23,13.78-9.12,4.1-2.52,9.27-2.55,13.16-5.81,2.39-2,4.88-4.37,8.5-4.04,2.65,2.34,5.31,4.68,7.96,7.02,3.48,6.35,9.81,10.22,13.99,15.96-5.51,1.31-10.13,4.06-14.76,7.38-3.96,2.84-8.44,6.09-14.11,5.09-1.01-.18-2.15-.04-2.87.6-6.44,5.77-15.32,6.73-22.39,11.43-3.38,2.24-7.98,2.42-11.3,5.46-1.41,1.29-3.27,2.14-4.53,3.74-1.52,1.94-3.7,2.91-6.09,2.99-7.52.24-13.7,3.09-18.77,8.69-2.22,2.45-4.89,3.95-8.74,3.79-3.46-.15-7.98-.55-9.16,4.66-.14.63-1,1.32-1.49,1.14-4.88-1.87-4.75,2.65-6.4,4.89-1.31.69-2.38.02-3.06-.9-3.56-4.85-8.5-8.42-12.11-13.21-1.51-3.31-5.98-4.53-6.2-8.74Z"/><path class="cls-15" d="m134.26,118.85c-1.07-5.31-4.12-10.1-4.33-15.61-.34-8.66.95-16.3,6.02-24.34,7.57-12,18.74-20.31,27.36-31.1,2.84-3.55,6.26-7.25,11.07-8.73-7.38,8.27-14.76,16.54-22.14,24.82-5.72,7.27-14.23,12.41-16.84,22.04-1.33,2.84.2,5.65.12,8.48-.06,1.94.32,3.9-1.24,5.47-.63,11.19,4.72,20.13,10.95,28.69,5.48,7.52,11.13,14.92,16.72,22.36.68.91,1.8,1.7.32,2.82-5.97-5.4-9.98-12.41-15.25-18.39-1.14-1.29-1.53-3.4-3.75-3.56-1.81-.72-2.17-2.53-3-3.99-2.56-2.62-3.28-6.46-6-8.98h0Z"/><path class="cls-89" d="m134.26,118.85c4.1,1.59,4.54,5.62,6,8.98-3.72-1.85-4.98-5.33-6-8.98Z"/><path class="cls-44" d="m234.21,166.73c1.34-1.66,2.67-3.32,4.01-4.98,1.63,4.05-.09,5.39-4.01,4.98Z"/><path class="cls-71" d="m290.18,262.51c3.17,4.1,6.61,7.86,12.01,8.99-.92,2.98-2.05,5.56-6.03,5.22-1.21-.1-2.21,1.2-3.22,2.11-2.2,1.98-4.83,3.38-7.96,3.04-1.77-.19-4.05.22-4.56,1.3-1.93,4.04-6.46,5.3-9.41,6.72-4.14,1.98-8.3,3.59-12.34,6.19-4.3,2.78-9.93,3.57-15.04,4.99-1.01.28-1.13.79-1.59,1.41-1.69,2.24-2.87,5.58-6.87,3.61-.37-.18-1.37.24-1.68.67-1.77,2.5-3.33,5.16-7.06,2.54-.21-.15-1.94,1.9-2.98,2.89-3.47,3.3-7.8,4.13-12.36,4.15-1.96,0-3.59.28-4.63,2.18-.3.55-1.15,1.37-1.42,1.26-5.79-2.35-8.14,3.78-12.46,4.98-.47.13-1.17.32-1.31.66-2.45,6.22-8.36,4.79-13.08,5.96-2.9.39-3.84-2.31-5.68-3.59-1.8-3.4-6.24-5.15-6.17-9.73,3.72-2.49,7.38-4.47,12.28-4.53,5.91-.06,10.92-3.52,15.46-7.11,2.16-1.71,4.26-2.94,6.97-3.49,2.59-.53,5.28-1.42,6.9-3.67,1.86-2.57,4.64-.85,6.52-1.76,1.97-.95.76-5.02,2.99-5.87,2.86-1.09,6.07-1.8,9.21-1.7,1.96.06,3.17.77,4.53-1.92,1.25-2.5,5.64-2.74,8.03-2.33,5.44.92,8.52-2.39,12.17-4.87.93-.63,1.59-2,2.81-1.79,2.68.47,3.2-.47,3.47-3.09.3-2.92,2.91-2.85,4.31-.99,2.05,2.74,4.14,2.03,5.88.47,4.09-3.66,9.63-6.18,10.62-12.5.21-1.34,1.15-2.12,2.47-1.91,3.07.49,6.37-.35,9.21,1.54Z"/><path class="cls-8" d="m173.29,327.18c1.63,1.39,3.26,2.79,4.9,4.18.73,1.87,3.19,2.62,3.22,4.94-1.96.82-2.22-1.16-3.2-1.94-.66-.34-1.31-.67-1.97-1.01-2.06-.68-3.05-2.31-3.76-4.19-.02-.78.18-1.47.81-1.98Z"/><path class="cls-29" d="m178.21,334.36c1.07.65,2.13,1.3,3.2,1.94.29.29.58.59.87.88-.02.38-.04.77-.06,1.15,0,0-.5,0-.5,0,0,0-.5,0-.5,0-1.59-.89-2.89-1.99-3.02-3.98Z"/><path class="cls-94" d="m137.2,93.93c.69,1.61,1.39,3.21,2.08,4.82,1.84,3.25,4.75,5.67,6.83,8.74,1.95,5.25,5.77,9.3,8.94,13.76,10.85,13.8,22.69,26.81,32.94,41.1.61,2.24,2.78,3.92,2.37,6.52-.38.3-.81.51-1.29.59-1.75.1-2.64-1.14-3.6-2.29-11.3-13.46-22.23-27.24-33.45-40.77-6.44-7.77-11.57-16.47-15.65-25.75-.77-3.21-3.25-6.38-.24-9.68.35.99-.23,2.32,1.08,2.96Z"/><path class="cls-76" d="m136.12,90.97c-2.41,3.63.96,6.59,1.14,9.92,1.61,6.47,5.96,11.83,7.44,18.35-.15.2-.3.4-.45.61-5.24-4.62-7.39-10.83-8.91-17.35-.22-.95-.12-1.98-1.09-2.6.58-4.64-1.26-9.47,1.12-13.96-.65,1.81.96,3.28.74,5.03Z"/><path class="cls-13" d="m127.26,272.49c-2.2-.15-1.27,3.85-4,2.99-1,.66-2,1.33-3,1.99,2.03-5.75,4.65-11.27,8.86-15.68,7.83-8.2,16-16.07,24.03-24.08,6.67-6.66,13.16-13.52,20.08-19.91,5.52-5.1,10.5-10.58,14.96-16.6,2.84-3.82,4.96-7.64,3.04-12.52h0c.37-1.33.37-2.66,0-3.99-1.35-4.24-3.46-8.13-5.93-11.78-.92-1.36-1.81-3.3-4.07-3.18-.18-.96-.06-2.16-.6-2.84-5.4-6.87-10.76-13.77-16.48-20.37-1.34-1.55-2.06-2.82-1.92-4.71.22-.07.45-.15.67-.22,2.19.42,3.11,2.28,4.43,3.77,8.37,9.45,14.92,20.35,23.74,29.43,3.77,6.26,7.84,12.55,5.1,20.32-1.66,4.7-4.69,8.83-7.95,12.5-4.94,5.56-10.09,10.99-15.58,16.03-4.5,4.14-8.65,8.59-12.58,13.28-4.26,5.07-9.91,8.71-14.51,13.52-6.64,6.95-12.59,14.39-18.3,22.06Z"/><path class="cls-69" d="m191.24,184.7c1.41,1.33,1.41,2.66,0,3.99-.91-1.33-.91-2.66,0-3.99Z"/><path class="cls-26" d="m145.26,107.87c-2.44-2.75-5.22-5.27-5.98-9.12,2.62,2.39,5.24,4.78,7.86,7.17,1.38,1.92,2.76,3.85,4.15,5.77-.01.72-.02,1.44-.04,2.17-3.93-.07-4.08-3.91-6-5.99Z"/><path class="cls-62" d="m290.18,262.51c-1.67,0-3.33-.06-5,.01-2.59.12-4.46-1.42-6.18,3.54-1.95,5.6-8.23,10.5-15.11,12.49-2.51.73-1.34-1.62-1.95-2.48-.74-1.05-1.6-1.9-2.86-1.24-1.1.58-.92,1.71-.24,2.57.84,1.07,1.08,1.95-.07,2.99-1.06.96-2,1-3.07.07-1.32-1.15-2.71-.94-3.14.67-.69,2.57-3.11,2.43-4.52,3.58-4.74,3.86-10.05,2.3-15.13,2.86-.98.11-1.56.52-1.18,1.6,1.56,4.4-1.1,3.48-3.22,2.32-3.77-2.07-6.96,2.13-10.57.67-.75,2.13-1.5,4.26-2.27,6.38-.27.74-.59,1.46-1.09,2.69-2.28-4.18-4.4-4.11-6.23-.16-.8,1.72-2.57,1.39-3.9,1.79-6.65,1.99-12.07,5.88-17.51,10.03-2.2,1.68-5.92,2.06-8.6,2.12-3.71.08-6.67.27-9.26,3.1-.49.54-1.91.22-2.91.3-2.14.18-3.11-.81-2.95-2.93.27-.95.94-1.99.76-2.84-1.08-4.94.56-5.53,4.56-3.16,1.66.98,2.96-.23,2.48-1.67-1.19-3.61,1.14-2.87,3.23-3.55,4.87-1.58,11.36,1.03,14.58-4.37,2.78-4.67,7.63-5.43,11.6-7.8,1.7-1.02,3.89-1.47,6.18-1.06,2.73.5,5.65-.17,6.91-2.72,1.11-2.25,3.36-2.49,4.65-3.86,5.35-5.64,13.24-6.19,19.6-9.89,4.76-2.76,10.15-6.42,15.58-7.29,4.61-.74,8.68-2.06,12.9-3.66,1.85-.7,3.29-1.65,4.29-3.13,1.31-1.95,1.53-6.18,5.05-1.78.07.09,1.11-.29,1.12-.48.27-7.12,4.99-1.83,7.48-2.69,1.01,1,2.02,1.99,3.02,2.99.99,1.33,1.98,2.66,2.97,3.99Z"/><path class="cls-66" d="m135.26,69.97c.11,3-2.4,4.48-3.77,6.64-1.04,1.62-2.65,3.08-2.23,5.34-1.33.67-2.66,1.33-4,2,2.49-5.26,3.96-11.24,10-13.97Z"/><path class="cls-66" d="m77.59,137.31c1.73-3.55,5.29-4.41,7.28-6.98.53-.68,1.53-.48,2.25.1.62.49.81,1.32.13,1.64-3.23,1.52-4.6,6.35-9.67,5.25Z"/><path class="cls-66" d="m58.71,141.11c1.24-.08,2.16.49,1.93,1.26-.49,1.58-1.76,2.75-3.37,3.21-1.1.31-1.94-.31-1.78-1.57.25-2.02,2.17-2.14,3.23-2.89Z"/><path class="cls-66" d="m97.92,126.22c-.25.92-1.03,1.44-2.1,1.48-.74.03-1.38-.47-1.16-1.18.34-1.07.96-2.18,2.37-1.98.69.1,1.02.75.88,1.68Z"/><path class="cls-32" d="m162.25,141.8c-4.26-.58-5.35-4.67-7.57-7.28-3.87-4.56-8.64-8.6-10.42-14.67,0,0,0,0,0,0,1.74-1.24,2.97-.06,3.73,1.16,3.87,6.21,9.34,11.14,13.45,17.14.76,1.1,1.49,2.23.82,3.65h0Z"/><path class="cls-102" d="m130.26,297.43c1.52,10.6,7.78,18.76,13.99,26.94-2.19,2.29-.16,4.08,1.1,5.39,2.12,2.21,3.4,4.64,3.9,7.58-.92-.17-2.27.97-2.7-.09-3.67-9.04-10.35-16.35-14.34-25.21-1.23-2.72-2.51-5.59-4.95-7.62-.02-5.4-1.29-10.65-2-15.96.76-10.07,4.77-18.69,11.62-26.07,1.02-1.09,1.86-2.36,3.48-2.63.73-.06,1.41.08,2.01.53,1.01,1.7-.07,2.86-1.15,3.86-9.4,8.66-12.01,19.59-10.86,31.82.05.49-.06.98-.09,1.48Z"/><path class="cls-102" d="m149.25,337.33c1.18.72.96,1.9,1,2.99-2.62-.24-1.55-1.7-1-2.99Z"/><path class="cls-63" d="m140.26,260.51c-7.37,7.6-13.3,15.9-13.42,27.1,0,.28-1.03.56-1.58.84-2.78-3.32-.45-6.48.41-9.63.58-2.1,2.4-3.88,1.59-6.33-1.83-4.88,3.33-6.15,5.19-8.7,7.25-9.97,16.81-17.93,25.45-26.7,9.92-10.07,20.31-19.76,29.56-30.45,3.29-3.8,6.58-8.02,7.94-13.37,1.8-7.06-2.17-12.08-5.15-17.54-.63-.87-.63-1.83-.37-2.82,1.11-1.09,2.15-.74,2.96.3,6.62,8.53,9.01,18.37,2.97,28.56-5.1,8.61-12.4,15.46-19.43,22.49-9.86,9.85-19.6,19.82-29.2,29.91-2.19,2.3-4.46,4.39-6.91,6.35Z"/><path class="cls-23" d="m130.26,297.43c-4.07-8.68,1.36-26.25,8.29-32.51,1.44-1.3,3.32-2.22,3.71-4.4-.59-2.4,1.73-2.96,2.81-4.23,7.39-8.73,16.09-16.2,23.8-24.62,7.68-8.37,16.39-15.78,23.42-24.75,7.93-10.13,9.43-20.35,1.69-31.88-1.35-2-3.47-3.63-3.73-6.31-1.12-1.94-2.89-3.55-3-5.99,3.97-1.56,4.14,3.17,6.66,4.01,8.19,9.52,14.04,19.69,9.17,32.85-3.32,5.15-8.15,8.97-12.13,13.56-9.27,10.71-19.27,20.79-28.91,31.18-1.44,1.55-2.55,3.41-3.81,5.13-8.11,7.25-15.17,15.44-21.81,24.03-4.95,7-6.34,14.65-4.16,22.94-.67.33-1.33.67-2,1Z"/><path class="cls-16" d="m142.26,305.41c0,.33,0,.67,0,1-4.05-3.34-3.79-8.68-5.98-12.88-.36-.69-.68-1.39-1.02-2.08,0-.33,0-.67,0-1-.41-1.26.22-1.92,1.33-2.3,1.95.76,2.06,2.78,2.92,4.28,1.04,3.26,1.48,6.7,3.05,9.8.54,1.07.64,2.2-.31,3.17Z"/><path class="cls-100" d="m136.25,288.47c-.33.66-.66,1.32-.99,1.98-1.55-4.33-1.79-8.66.13-12.96-.73,2.75,1.34,5.16.99,7.87-.16,1.03-.08,2.08-.12,3.11Z"/><path class="cls-9" d="m142.26,305.41c-1.44-4.29-3.28-8.46-3.99-12.98.37-.34.8-.5,1.3-.49,1.87.91,2.53,2.75,3.43,4.41,1.82,4.15,4.7,7.76,6.26,12.05,2.07,8.23,9.17,13.08,13.48,19.82,1.05,1.65,2.86,2.81,2.52,5.11-6.67-5.26-10.66-12.76-16.04-19.1-2.43-2.85-4.64-5.89-6.95-8.84Z"/><path class="cls-64" d="m149.25,308.4c-3.65-3.22-5.51-7.49-7-11.97,3.69.02,4.74,3.21,6.58,5.44,2.37,2.03,4.56,4.22,5.92,7.09,1.48,2.73,3.78,4.7,6.13,6.64.51.45.92.98,1.24,1.57.86,3.26,5.35,4.25,5.11,8.18,0,1,0,2,0,2.99-2.11-.09-2.9-1.79-4.14-3.12-4.97-5.33-7.84-12.38-13.86-16.83Z"/><path class="cls-61" d="m167.25,325.36c-1.41-3.1-5.46-4.22-6-7.98,4.28.4,5.87,4.23,8.39,6.77,1.43,1.45,2.62,3.31,3.61,5.2,1,1.33,2,2.67,3,4,0,.33,0,.66,0,.99-4.26-1.74-6.47-5.51-8.99-8.98Z"/><path class="cls-87" d="m148.26,302.41c-1.96-2.04-3.39-4.6-6.01-5.97-.99-1.34-1.99-2.67-2.98-4.01-.61-.73-.59-1.44.04-2.15.97.75,1.95,1.5,2.92,2.26,1.86,3.01,5.34,4.63,6.85,7.94-.37.6-.04,1.5-.82,1.93Z"/><path class="cls-14" d="m139.31,290.27c-.01.72-.02,1.43-.04,2.15-.34,0-.67,0-1.01,0-.18-1.57-.7-2.97-2.01-3.96-1.32-1.09-1.26-2.13.12-3.11.98,1.64,2.74,2.82,2.93,4.92Z"/><path class="cls-3" d="m212.4,185.73c-.11.29-.23.58-.36.86-2.5-.29-1.75-2.42-2.09-3.85-.42-1.8-.99-3.51-1.86-5.13-.08-.23-.15-.45-.23-.68-.06-.49.03-.95.27-1.38.45-.26.88-.24,1.29.1,2.3.93,1.5,3.66,2.97,5.08.52,1.66.5,3.33.02,5Z"/><path class="cls-58" d="m198.23,164.75c2.12.22,2.24,3.88,5.05,2.91.85.36.98,1.1,1,1.89.23.26.32.54.28.82-.04.29-.09.44-.16.44-.95.5-1.82.13-2.69-.24-1.83-1.1-3.53-2.31-4.01-4.58.03-.48.21-.89.53-1.25Z"/><path class="cls-75" d="m204.21,170.73c.03-.39.05-.79.08-1.18,1.94,1.84,4.5,3.16,5.13,6.11-.39.02-.77.04-1.16.06-2.25-.93-4.27-2.05-4.05-4.99Z"/><path class="cls-28" d="m212.4,185.73c0-1.67-.01-3.33-.02-5,1.44,1.46.65,3.3.85,4.97-.28,0-.56.02-.83.03Z"/><path class="cls-88" d="m203.07,199.6c-.24-.41-.79-.93-.69-1.23,3.43-10.21,0-18.81-6.17-26.81-.99-1.28-1.22-3.14-2.98-3.82-6.9-8.63-13.89-17.2-20.95-25.71-1.2-1.44-3.21-2.63-2.33-5.07,1.2-.9,1.69.15,2.31.84l1.99,1.99c2.32,1.68,4.34,3.65,5.98,6,.33.33.67.67,1,1,2.04,3.48,6.15,5.3,7.5,9.33,2.77,3.88,6.04,7.37,9.11,10.99,4.65,5.47,7.47,11.65,9.39,18.37,1.15,4.03.47,7.85-1.96,11.3-.73.94-1.46,1.88-2.2,2.82Z"/><path class="cls-105" d="m205.27,196.78c3.34-11.3-1.78-20.15-8.17-28.75-3.01-4.05-6.66-7.64-8.87-12.27.33-.35.67-.35,1,0,1.99,2,3.99,4,5.98,6.01.92,1.39,2.08,2.59,3.01,3.97.96,1.7,2.29,3.02,3.98,3.99.89,1.57,2.47,2.66,3.1,4.43,1.38,3.71,3.08,7.27,3.79,11.24.62,3.48.32,6.55-1.83,9.38-.67.66-1.33,1.33-2,1.99Z"/><path class="cls-56" d="m207.27,194.79c1.9-5.74.63-11.16-1.75-16.45-.67-1.49-1.47-2.91-1.29-4.62,2.41-.43,2.77,1.86,4,2.99h0c2.89,3.88,2.32,8.5,2.81,12.9-.64,2.18-1.71,4.04-3.78,5.18Z"/><path class="cls-96" d="m211.05,189.61c-1.28-4.23-.97-8.8-2.81-12.9,3.83,2.31,2.02,6.78,3.8,9.88-.33,1.01-.66,2.02-.99,3.02Z"/><path class="cls-53" d="m172.27,137.8l-2.03-.98c-1.88.61-2.72-.84-3.63-1.95-3.57-4.37-7.28-8.63-10.86-12.99-.19-.76-.11-1.45.49-2.01,5.98,5.41,11.53,11.2,16.02,17.94Z"/><path class="cls-65" d="m156.25,119.86v1.99c-.66.64-1.33.56-2,0-3.35-4.43-7.47-8.37-8.99-13.98,2.49,1.51,3.12,4.87,6,5.99,1.69,1.98,2.77,4.46,4.99,6Z"/><path class="cls-38" d="m180.23,145.79c-2.38-1.62-4.4-3.59-5.98-6,.33,0,.67,0,1,0,2.08,1.65,4.52,3.01,4.98,6.01Z"/><path class="cls-17" d="m189.24,155.77c-.33,0-.67,0-1,0-1.95-3.29-5.99-4.95-7.01-8.97,3.04,2.66,6.66,4.8,8.01,8.97Z"/><path class="cls-40" d="m198.23,165.74c-1.6-.88-2.91-1.97-3.01-3.97,1.38.62,2.35,1.64,3.01,2.98,0,.33,0,.67,0,1Z"/><path class="cls-29" d="m148.26,302.41c.27-.64.55-1.29.82-1.93,4.71,5,9.43,10,14.14,15,.98.98,1.97,1.95,2.95,2.93,2.37,2.93,4.74,5.86,7.11,8.79-.01.72-.03,1.45-.04,2.17-4.63-3.36-7-8.98-11.99-11.97-.33-.33-.66-.67-1-1-1.61-2.66-4.35-4.35-6.01-6.98-2-2.33-3.99-4.67-5.99-7Z"/><path class="cls-106" d="m190.24,172.73c0,1,0,2,0,2.99-6.61-6.81-11.7-14.83-17.71-22.11-3.31-4.01-5.98-8.64-10.28-11.81-4.43-7.84-11.47-13.72-16.18-21.36-.25-.41-1.19-.4-1.81-.59-.48-4.21-3.96-7.02-5.12-10.91-.79-2.65-2.17-5.15-1.87-8.04,3.45,1.69,3.07,5.57,4.68,8.32,10.64,18.09,25.23,33.12,38.22,49.38,2.81,3.52,4.93,7.76,9.07,10.14,1.03,1.16,1.8,2.38,1,3.99Z"/><path class="cls-107" d="m190.24,172.73c-.68-1.24-1.16-2.54-1-3.99.33,0,.67,0,1,0,12.02,13.1,13.27,27.49.24,41.61-9.72,10.53-19.87,20.66-29.61,31.17-6,6.46-12.42,12.65-18.61,19.01-.67,0-1.33,0-2,0,2.16-3.88,5.5-6.8,8.53-9.91,12.54-12.89,25.35-25.5,37.83-38.45,3.35-3.47,6.27-7.53,8.62-11.74,4.43-7.93,3.65-15.98-1.41-23.39-.99-1.45-.94-4.12-3.58-4.29Z"/><path class="cls-12" d="m154.25,121.85c.67,0,1.34,0,2.01,0,4.6,3.08,7.27,7.93,10.89,11.91.99,1.09,1.71,2.39,3.1,3.06,2.78,5.87,8.25,9.69,11.59,15.1,3.43,5.56,9.38,9.28,11.41,15.82-2.77-.73-2.66-4.93-6-4.99-3.95-3.07-5.56-7.93-8.91-11.51-8.67-9.26-16.11-19.55-24.08-29.39Z"/><path class="cls-61" d="m154.25,309.4c2.43,1.96,5.25,3.59,6.01,6.98-2.43-1.96-5.25-3.58-6.01-6.98Z"/><path class="cls-96" d="m208.24,176.71c-1.33-1-2.67-1.99-4-2.99-.57-1.38-2.14-2.25-2.02-3.98.66.33,1.33.66,1.99.99,1.35,1.66,2.7,3.32,4.04,4.99,0,.33,0,.67-.01,1Z"/></svg>