<?xml version="1.0" encoding="UTF-8"?><svg id="Capa_1" xmlns="http://www.w3.org/2000/svg" viewBox="0 0 512 512"><defs><style>.cls-1{fill:#25509f;}.cls-2{fill:#4879bc;}.cls-3{fill:#5d98d1;}.cls-4{fill:#5f9bd4;}.cls-5{fill:#5e93ce;}.cls-6{fill:#6aa7db;}.cls-7{fill:#ccd0ea;}.cls-8{fill:#73b1e1;}.cls-9{fill:#2f5aa6;}.cls-10{fill:#3565af;}.cls-11{fill:#7ab6e4;}.cls-12{fill:#4d80c1;}.cls-13{fill:#4273b8;}.cls-14{fill:#3463ad;}.cls-15{fill:#2e58a5;}.cls-16{fill:#6196d0;}.cls-17{fill:#5386c5;}.cls-18{fill:#77b4e3;}.cls-19{fill:#a6b1db;}.cls-20{fill:#639fd6;}.cls-21{fill:#5b90cc;}.cls-22{fill:#b3bbe0;}.cls-23{fill:#bfc5e5;}.cls-24{fill:#598dca;}.cls-25{fill:#99a7d6;}.cls-26{fill:#67a3d9;}.cls-27{fill:#bcd2ef;}.cls-28{fill:#f5f6fc;}.cls-29{fill:#305da8;}.cls-30{fill:#2b54a2;}.cls-31{fill:#6ca9dd;}.cls-32{fill:#4475ba;}.cls-33{fill:#7ab7e5;}.cls-34{fill:#578ac8;}.cls-35{fill:#8c9dd0;}.cls-36{fill:#27519f;}.cls-37{fill:#3260ab;}.cls-38{fill:#4b7cbe;}.cls-39{fill:#5083c3;}.cls-40{fill:#3d6eb5;}.cls-41{fill:#65a1d8;}.cls-42{fill:#d8dbf0;}.cls-43{fill:#6eabde;}.cls-44{fill:#4071b7;}.cls-45{fill:#5488c6;}.cls-46{fill:#e5e6f5;}.cls-47{fill:#71aedf;}.cls-48{fill:#cbd5ee;}.cls-49{fill:#6facde;}.cls-50{fill:#f7f9fd;}</style></defs><path class="cls-29" d="m144.64,208.57c-8.24-9.38-16.48-18.75-24.72-28.13.91-5.1,5.17-7.62,8.55-10.61,10.59-9.35,20.8-19.11,31.18-28.68,16.86-15.54,33.86-30.93,50.37-46.85.89-.86,1.87-1.35,3.12-1.28,5.22.01,10.43,0,15.65,0,9.58,0,19.17,0,28.74,0,2.22,0,4.45,0,6.67,0,3.41,1.74,1.2,3.61-.23,4.77-4.53,3.68-8.41,8.03-12.72,11.93-17,15.36-33.65,31.09-50.49,46.62-16.71,15.42-33.44,30.83-50.1,46.3-2.06,1.92-3.66,4.31-6.01,5.93Z"/><path class="cls-16" d="m164.59,275.38c5.58-6.4,11.17-12.8,16.74-19.21.93-1.07,2.48-1.79,2.16-3.62,1.96-4.56,6.04-7.43,9.17-11,13.68-15.6,27.42-31.16,41.12-46.74,13.81-15.7,27.85-31.21,41.4-47.14,2.15-2.53,4.81-4.61,6.53-7.51,12.87-14.02,25.17-28.56,37.86-42.74.97-1.09,1.8-2.47,3.64-1.94,4.91.72,7.35,4.82,10.29,7.98,6.35,6.83,12.32,14.03,18.44,21.07-5.08,6.23-11.77,10.66-17.88,15.7-32.95,27.16-65.86,54.36-98.85,81.47-21.44,17.62-42.76,35.38-64.35,52.81-1.16.93-2.19,2.16-3.71,2.44-1.16.21-2.79.7-2.57-1.57Z"/><path class="cls-9" d="m144.64,208.57c2.23-5.67,7.15-9.14,11.47-12.74,5.86-4.88,11.07-10.42,16.8-15.42,11.59-10.11,22.47-21.04,33.73-31.53,17.55-16.35,35.18-32.61,52.77-48.91,2.12-1.96,5.42-2.81,5.95-6.29,7.41-1.48,14.91-.24,22.35-.65,3.71,0,7.42,0,11.12,0,3.94,1.32,2.07,3.46.45,5.03-8.23,7.98-16.65,15.75-25.12,23.46-10.68,9.73-21.21,19.62-31.86,29.36-15.92,14.57-31.64,29.36-47.61,43.88-9.33,8.49-18.32,17.36-27.85,25.63-2.34,2.03-3.25,4.97-5.25,7.18-6.16-5.88-11.46-12.53-16.95-19.01Z"/><path class="cls-33" d="m390.98,169.47c7.85,6.77,13.74,15.34,20.84,22.82,4.26,4.49,8.02,9.45,12,14.21-.49,2-2.14,2.85-3.71,3.79-40.6,24.25-81.2,48.49-121.78,72.78-1.91,1.14-4.06,3.42-6.57.74-.74-2.77,1.35-4.17,2.83-5.86,5.73-6.54,11.42-13.11,17-19.77,13.04-14.07,24.77-29.28,37.86-43.31,11-12.61,21.65-25.53,32.89-37.94,2.76-2.62,4.02-7.02,8.65-7.46Z"/><path class="cls-37" d="m211.5,93.67c-4.2,6.24-10.19,10.81-15.68,15.67-5.69,5.03-11.09,10.37-16.75,15.42-15.66,13.97-30.65,28.68-46.13,42.85-4.51,4.13-9.28,7.93-13.01,12.83-7.48-8.53-15.44-16.64-22.18-25.82-1.35-2.72.83-3.94,2.35-5.32,11.77-10.7,23.38-21.57,35.06-32.38,8.02-7.43,16.05-14.87,24.15-22.21,1-.91,2.1-1.62,3.51-1.68,2.52.01,5.03,0,7.55,0,9.68,0,19.35,0,29.02,0,4.03.38,8.14-.78,12.12.65Z"/><path class="cls-12" d="m390.98,169.47c-3.36,1.96-5.14,5.49-7.93,8.01-7.87,4.7-14.44,11.09-21.48,16.85-23.38,19.15-46.68,38.4-69.99,57.63-31.38,25.89-62.78,51.77-94.19,77.62-26.54,21.84-53.06,43.72-79.6,65.56-7.17,5.9-14.7,11.4-21.3,17.99-.49.49-1.12.68-1.81.72-4.2,0-8.4,0-12.6,0-1.41.04-1.78-.71-1.27-1.89.82-1.89,2.35-3.21,3.9-4.47,22.97-18.64,45.73-37.54,68.55-56.36,31.15-25.7,62.36-51.3,93.47-77.05,20.09-16.63,40.27-33.17,60.44-49.72,24.14-19.82,48.19-39.75,72.34-59.56,1.62-1.33,3.08-3.2,5.63-2.39,2.7,1.72,4.19,4.45,5.84,7.04Z"/><path class="cls-6" d="m455.96,256.49c-.55,2.7-.86,5.46-2.19,7.94-46.75,27.64-93.24,55.72-139.87,83.56-33.94,20.27-67.89,40.53-101.78,60.87-2.67,1.6-4.7,4.23-7.89,4.99-6.74,0-13.47,0-20.2,0-2.25,0-1.9-1.32-1.27-2.66.77-1.62,2.43-2.21,3.84-3.05,52.69-31.41,105.28-62.97,157.92-94.45,34.81-20.82,69.59-41.67,104.44-62.41,2.01-1.19,3.93-3.35,6.74-1.84.1.31.18.62.25.94.61,2.04.6,4.07,0,6.11Z"/><path class="cls-15" d="m161.59,227.58c-.13-4.86,3.42-7.59,6.61-9.99,6.13-4.6,11.2-10.3,16.86-15.37,15.67-14,30.77-28.65,46.15-42.98,12.83-11.96,25.71-23.86,38.63-35.72,9.62-8.84,19.31-17.59,29.03-26.32,1.14-1.03,1.42-2.15,1.39-3.52,3.44-1.38,7.03-.3,10.53-.66,3.66,1,.98,2.81.26,3.87-3.36,4.96-7.78,9.06-11.67,13.59-14.51,16.86-29.48,33.31-44.17,50.01-11.62,13.21-23.24,26.42-34.97,39.53-11.28,12.62-22.42,25.36-33.54,38.12-2.65,3.05-4.94,6.62-8.94,8.27-5.49-6.19-11.33-12.08-16.18-18.84Z"/><path class="cls-39" d="m385.15,162.42c-7.9,4.65-14.26,11.25-21.34,16.93-16.25,13.04-32.3,26.32-48.38,39.57-14.04,11.58-27.95,23.3-41.99,34.87-13.78,11.36-27.69,22.55-41.48,33.9-12.38,10.2-24.64,20.56-37.01,30.77-11.73,9.69-23.56,19.26-35.31,28.92-12.39,10.19-24.72,20.46-37.1,30.66-11.87,9.78-23.74,19.56-35.69,29.24-2.21,1.79-4.27,3.66-6.01,5.9-.88,1.02-1.92.66-2.96.33-2.43-.41-5.21.36-7.06-2.06-1.41-3.21,1.28-4.54,3.03-6.01,15.03-12.6,30.23-24.99,45.37-37.46,27.84-22.93,55.6-45.95,83.48-68.82,23-18.87,45.94-37.81,68.91-56.72,31.18-25.67,62.44-51.24,93.47-77.09,3.32-2.77,6.74-5.41,10.11-8.12,1.49-1.2,3.03-2.14,4.93-.8,1.68,1.99,3.35,3.98,5.03,5.97Z"/><path class="cls-2" d="m350.14,215.47c-11.15,13-22.28,26.02-33.48,38.99-1.28,1.49-2.92,2.67-4.39,3.99-7.25,7.6-15.67,13.84-23.72,20.5-29.32,24.25-58.7,48.43-88.08,72.61-24.25,19.95-48.49,39.92-72.71,59.9-.91.75-1.98,1.21-3.01,1.75-4.68.11-9.35.22-14.03.33-.7.37-1.39.36-2.1.03-1.24-2.7.81-4.03,2.41-5.34,20.46-16.68,40.79-33.53,61.16-50.31,27.8-22.9,55.59-45.83,83.38-68.74,20.88-17.21,41.78-34.4,62.7-51.56,8.73-7.16,17.36-14.44,26.18-21.48,1.51-1.21,3.39-4.03,5.67-.66Z"/><path class="cls-17" d="m380.12,156.46c-6.08,1.14-9.59,6.19-14,9.69-12.55,9.97-24.65,20.52-37.01,30.74-12.35,10.21-24.81,20.3-37.22,30.45-16.11,13.19-32.24,26.36-48.32,39.59-15.57,12.82-31.06,25.73-46.63,38.55-17.99,14.81-36.05,29.54-54.03,44.36-14.03,11.57-27.96,23.26-41.97,34.85-8.53,7.06-17.16,13.99-25.7,21.05-1.88,1.55-4.15,2.9-4.43,5.73-3.06-.92-5.03-2.94-6.02-5.96-.64-2.1,1.02-2.96,2.24-3.97,24.12-20.08,48.46-39.9,72.64-59.91,31.22-25.84,62.58-51.5,93.81-77.32,22.91-18.94,45.89-37.8,68.86-56.68,20.79-17.08,41.52-34.23,62.32-51.31,1.67-1.37,2.64-2.92,2.73-5.06.91-2.12,1.84-4.21,4.75-3.82,2.66,3,5.31,6.01,7.97,9.01Z"/><path class="cls-34" d="m372.15,147.44c-1.75.95-3.09,2.31-4.07,4.04-2.27.49-4.4,1.14-6.28,2.71-30.64,25.56-61.57,50.77-92.32,76.19-21.01,17.37-42.14,34.6-63.16,51.96-31.14,25.73-62.41,51.29-93.51,77.08-14.97,12.42-30.08,24.66-45.04,37.1-1.53,1.28-3.2,2.62-5.24.71-.16-.98-.29-1.95.21-2.88.05-3.59,2.33-6.11,4.39-8.61,2.71-3.3,5.76-6.32,8.67-9.45,9.1-5.81,17.25-12.86,25.56-19.71,21.43-17.64,42.83-35.31,64.26-52.95,31.31-25.77,62.54-51.63,93.88-77.37,22.99-18.88,45.9-37.84,68.88-56.73,10.53-8.65,21.16-17.17,31.55-26,1.72-1.47,3.29-3.4,5.98-3.02,2.08,2.3,4.16,4.61,6.24,6.91Z"/><path class="cls-21" d="m103.72,345.27c1.06-3.93,4.66-5.84,7.09-8.63,9.8-11.23,19.1-22.92,29.83-33.33,12.19-8.94,23.55-18.91,35.23-28.48,21.59-17.69,43.15-35.41,64.64-53.21,27.51-22.78,55.21-45.33,82.65-68.19,9.44-7.87,19.11-15.47,28.45-23.47,1.03-.88,2.15-1.56,3.56-1.58,2.79,1.68,4.15,4.6,6.05,7.05-3.1,4.44-7.67,7.31-11.74,10.64-32.44,26.5-64.67,53.25-97.02,79.87-38.38,31.58-76.76,63.16-115.07,94.83-9.48,7.84-18.97,15.67-28.51,23.43-1.33,1.08-2.85,3.68-5.15,1.08Z"/><path class="cls-26" d="m205.52,413.21c.12-2.75,2.64-3.37,4.33-4.38,37.08-22.21,74.25-44.27,111.34-66.46,20.75-12.41,41.36-25.04,62.08-37.49,20.86-12.54,41.77-25.02,62.71-37.43,2.37-1.41,4.75-3.16,7.78-3.02-4.04,8.28-10.47,14.65-16.81,21.09-16.97,9.74-33.58,20.09-50.41,30.08-51.54,30.6-102.82,61.65-154.38,92.22-3.39,2.01-6.36,4.71-10.16,6.04-5.49-.4-11.04.8-16.49-.65Z"/><path class="cls-24" d="m103.72,345.27c2.02,1.21,3.07-.81,4.07-1.62,11.8-9.58,23.44-19.36,35.17-29.01,16.2-13.33,32.48-26.55,48.66-39.9,17.59-14.5,35.07-29.14,52.66-43.64,15.93-13.13,32.01-26.08,47.93-39.22,16.06-13.25,31.85-26.82,48.07-39.86,6.93-5.58,13.25-11.97,20.93-16.59,1.82,1.46,3.74,2.83,4.7,5.09-13.43,11-26.86,22-40.28,33.01-11.63,9.55-23.26,19.1-34.87,28.67-12.63,10.41-25.24,20.84-37.88,31.24-11.75,9.66-23.53,19.28-35.29,28.94-12.14,9.97-24.28,19.93-36.39,29.93-11.99,9.9-23.92,19.86-35.92,29.74-12.25,10.09-24.59,20.08-36.82,30.18-9.82,8.11-19.46,16.43-29.81,23.87-.96.69-1.77,1.73-2.82.18,9.29-10.35,17.8-21.41,27.91-31.02Z"/><path class="cls-8" d="m434.04,218.39c2.77,2.5,5.76,4.79,7.66,8.12-.62,2.81-3.05,3.79-5.17,5.05-54.77,32.71-109.41,65.62-164.25,98.2-10.43,6.19-20.74,12.58-31.2,18.71-1.84,1.08-3.87,3.17-6.06.37-.32-1.5.56-2.54,1.41-3.56,6.92-8.28,13.9-16.51,21.34-24.33.79-.61,1.65-1.03,2.66-1.11,2.71.15,4.66-1.61,6.75-2.86,53.54-32.05,107.15-63.98,160.62-96.15,1.88-1.13,3.58-3.12,6.22-2.44Z"/><path class="cls-31" d="m455.7,249.45c-9.29,3.69-17.29,9.7-25.83,14.73-27.54,16.2-54.92,32.67-82.34,49.08-20.46,12.24-40.86,24.57-61.32,36.81-27.27,16.33-54.57,32.62-81.87,48.9-6.53,3.89-13.14,7.65-19.65,11.59-.91.55-1.42,1.76-2.11,2.66-.88,1.02-1.95.62-2.99.38l.04-.4c-.59-1.44.04-2.67.92-3.64,4.98-5.5,9.71-11.22,14.57-16.82.87-1,1.98-1.75,3.38-1.91,3.1.26,5.29-1.76,7.67-3.18,50.23-29.94,100.34-60.07,150.54-90.04,29.95-17.88,59.75-36.02,89.83-53.68,1.98-1.16,3.9-2.6,6.37-2.57,2.3,2.23,2.08,5.32,2.79,8.1Z"/><path class="cls-47" d="m235.4,348.29c1.31,1.79,2.46.73,3.79-.07,33.91-20.36,67.82-40.72,101.76-61.02,26.99-16.14,54.05-32.14,81.02-48.32,6.66-3.99,13.62-7.51,19.73-12.38,1.7,2.6,4.69,4.08,6.04,6.98-.68,2.6-3.06,3.38-5,4.55-59.56,35.67-119.09,71.38-178.73,106.92-13.98,8.33-27.87,16.82-41.88,25.11-1.78,1.06-3.69,3.42-6.05.73.7-4.35,4.34-6.72,6.7-9.95,3.31-3.2,5.86-7.08,9.13-10.32,1.01-1,1.61-2.59,3.48-2.24Z"/><path class="cls-45" d="m63.01,397.38c4.45.08,6.43-3.9,9.23-6.15,22.4-18.03,44.55-36.36,66.71-54.68,21.65-17.9,43.17-35.98,64.85-53.85,17.47-14.4,35.13-28.55,52.62-42.93,17.62-14.48,35.09-29.15,52.69-43.65,15.94-13.13,31.98-26.15,47.97-39.22,2.18-1.78,4.56-3.39,6.4-5.46,1.82-2.04,3.08-1.03,4.59.06,1.42,2,.37,3.39-1.16,4.65-11.73,9.68-23.46,19.38-35.21,29.04-12.26,10.08-24.55,20.12-36.82,30.18-16.11,13.2-32.27,26.35-48.33,39.61-16.07,13.27-31.98,26.72-48.07,39.96-15.57,12.81-31.32,25.41-46.92,38.19-13.56,11.11-27,22.35-40.52,33.51-14.79,12.21-29.61,24.37-44.4,36.59-.74.61-1.24,1.53-1.84,2.31-1.51-1.37-1.96-3.17-2.06-5.12-.4-1.05-.67-2.09.26-3.02Z"/><path class="cls-20" d="m422.06,302.45c-8.31,10.28-17.07,20.16-26.1,29.81-20.07,12.27-40.23,24.41-60.47,36.39-22.88,13.54-45.6,27.37-68.4,41.05-2.45,1.47-5.07,2.44-7.68,3.51-2.69.11-5.38.22-8.06.33-4.2.7-8.43.13-12.63.33-1.35.01-1.85-.66-1.21-1.85,1-1.85,2.85-2.74,4.55-3.77,57.83-34.82,115.88-69.28,173.76-104.02,1.82-1.09,3.56-3.36,6.24-1.77Z"/><path class="cls-14" d="m161.63,93.66c-11.01,11.17-22.85,21.45-34.36,32.09-7.52,6.96-15.02,13.94-22.3,21.16-2.49,2.47-6.7,3.4-7.24,7.71-6.73-6-12.07-13.25-17.94-20.02-1.76-2.95.47-4.63,2.14-6.38,6.16-6.47,12.97-12.29,19.57-18.28,5.51-5,10.51-10.55,16.39-15.14,1.04-.81,1.85-1.92,3.37-1.78,6.23.02,12.45,0,18.67,0,7.22.37,14.49-.77,21.68.63Z"/><path class="cls-41" d="m422.06,302.45c-9.54,4.26-18.05,10.32-26.99,15.61-28.49,16.86-56.82,33.99-85.2,51.03-23.27,13.97-46.54,27.95-69.8,41.95-.96.58-1.76,1.44-2.64,2.17-4.65,1.07-9.31,1.06-13.96,0,2.66-4.81,7.88-6.21,12.11-8.78,23.6-14.38,47.34-28.52,71.07-42.69,42.34-25.28,84.71-50.52,127.07-75.77,1.01-.6,1.89-2.29,3.24-.45-4.73,5.85-9.34,11.8-14.9,16.92Z"/><path class="cls-32" d="m124.76,413.21c6.35-7.29,14.47-12.51,21.77-18.69,12.35-10.46,24.9-20.67,37.39-30.95,11.86-9.75,23.77-19.44,35.63-29.2,12.36-10.18,24.67-20.43,37.03-30.62,11.85-9.77,23.68-19.56,35.61-29.22,6.67-5.4,12.84-11.43,20.1-16.07-2.39,5.03-7.13,8.15-10.17,12.65-2.95,4.36-7.6,7.33-9.91,12.21-4.04,6.28-8.75,11.97-14.61,16.65-2.71.08-4.58,1.85-6.48,3.42-38.3,31.57-76.63,63.12-114.96,94.66-6.14,5.06-12.24,10.17-18.43,15.17-4.32,0-8.64,0-12.96,0Z"/><path class="cls-4" d="m259.41,413.21c7.85-4.88,15.63-9.88,23.56-14.63,36.67-21.97,73.38-43.87,110.07-65.81.93-.55,1.68-1.88,2.92-.52-8.85,10.12-17.18,20.71-26.77,30.17-26.78,15.92-53.48,31.96-80.17,48.03-1.56.94-3.21,1.72-4.72,2.74-8.3,0-16.6,0-24.9,0Z"/><path class="cls-5" d="m355.16,128.39c-21.4,17.65-42.83,35.28-64.19,52.97-21.63,17.91-43.15,35.97-64.82,53.83-17.46,14.39-35.09,28.57-52.6,42.9-9.85,8.06-19.59,16.24-29.41,24.32-.96.79-1.75,2.95-3.51.9,2.67-5.41,7.71-8.84,11.29-13.52,3.88-5.07,8.42-9.64,12.67-14.42,1.08,1.48,2.24,1.07,3.39.12,9.44-7.77,18.88-15.55,28.32-23.33,11.99-9.88,23.99-19.75,35.97-29.64,12.49-10.31,24.95-20.66,37.46-30.95,11.87-9.76,23.82-19.43,35.68-29.2,12.38-10.19,24.67-20.49,37.05-30.67,3.05-2.51,5.85-5.4,9.47-7.16,1.07,1.28,2.14,2.57,3.22,3.85Z"/><path class="cls-49" d="m216.46,370.3c1.49,1.88,2.75.22,3.84-.43,37.76-22.66,75.45-45.43,113.23-68.05,37.07-22.2,74.24-44.25,111.35-66.38.99-.59,1.92-1.3,2.87-1.96,1.32,1.66,2.64,3.31,3.96,4.97-.63.94-1.53,1.5-2.57,1.87-1.61.5-3.1,1.25-4.43,2.31-.34.26-.71.48-1.08.69-1.35.66-2.66,1.37-3.85,2.29-.35.26-.72.49-1.1.7-1.36.66-2.69,1.37-3.89,2.3-.35.26-.72.49-1.1.7-1.36.66-2.69,1.37-3.89,2.3-.35.26-.72.49-1.1.7-1.36.66-2.69,1.37-3.89,2.3-.35.26-.72.49-1.1.7-1.36.66-2.69,1.37-3.89,2.3-.35.26-.72.49-1.1.7-1.36.67-2.69,1.38-3.9,2.31-.35.26-.72.49-1.11.7-1.37.67-2.71,1.39-3.92,2.33-.35.27-.73.49-1.12.71-1.96.97-3.97,1.86-5.73,3.21-.35.27-.73.49-1.11.71-1.37.67-2.72,1.38-3.93,2.31-.35.26-.72.49-1.11.7-1.36.67-2.7,1.37-3.9,2.3-.35.26-.72.49-1.1.7-1.36.66-2.69,1.37-3.89,2.3-.35.26-.72.49-1.1.7-1.36.66-2.69,1.37-3.89,2.3-.35.26-.72.49-1.1.7-1.36.66-2.69,1.37-3.89,2.3-.35.26-.72.49-1.1.7-1.36.66-2.69,1.37-3.89,2.3-.35.26-.72.49-1.1.7-1.36.66-2.69,1.37-3.89,2.3-.35.26-.72.49-1.1.7-1.36.66-2.69,1.37-3.89,2.3-.35.26-.72.49-1.1.7-1.36.66-2.69,1.37-3.89,2.3-.35.26-.72.49-1.1.7-1.36.66-2.69,1.37-3.89,2.3-.35.26-.72.49-1.1.7-1.36.67-2.69,1.38-3.9,2.31-.35.26-.72.49-1.11.7-1.37.67-2.71,1.39-3.92,2.33-.35.27-.73.49-1.12.71-1.96.97-3.97,1.86-5.73,3.21-.35.27-.73.49-1.11.71-1.37.67-2.72,1.38-3.93,2.31-.35.26-.72.49-1.11.7-1.36.67-2.7,1.37-3.9,2.31-.35.26-.72.49-1.1.7-1.35.66-2.69,1.37-3.89,2.3-.35.26-.72.49-1.09.7-1.35.66-2.67,1.36-3.87,2.28-.35.26-.72.49-1.1.7-1.82.8-3.46,1.85-4.83,3.32-12.43,8.28-25.45,15.57-38.25,23.22-18.36,10.97-36.63,22.1-55.04,32.98-3.41,2.01-6.67,5.16-11.31,3.91-.3-.41-.61-.94-.38-1.35,2.74-4.95,5.81-9.59,11.23-12.03Z"/><path class="cls-11" d="m277.36,299.49c5.19-5.17,9.16-11.46,14.84-16.18,2.19,2.17,3.78-.21,5.17-1.04,34.65-20.71,69.23-41.55,103.83-62.34,7.52-4.52,15.08-8.96,22.62-13.43,1.73,1.97,3.47,3.95,5.2,5.92-.51,2.25-2.49,2.99-4.17,4-47.17,28.27-94.42,56.43-141.61,84.67-2.36,1.41-4.85,4.63-8.31,1.73-.18-1.84.69-2.9,2.44-3.32Z"/><path class="cls-10" d="m119.74,93.65c-.19,2.35-2.26,3-3.69,4.33-11.53,10.68-22.95,21.48-34.43,32.21-1.31,1.23-1.95,2.64-1.83,4.41-5.61-7.3-13.69-12.58-17.13-21.67-2.99-7.91,2.33-19.02,13.08-19.53,11.55-.86,23.11-.14,34.66-.37,3.1.35,6.3-.75,9.33.62Z"/><path class="cls-44" d="m235.4,348.29c-3.95,4.37-7.9,8.75-11.85,13.12-11.16,9.05-22.07,18.41-33.27,27.41-10.17,8.16-19.68,17.16-30.6,24.38-4.66,0-9.33,0-13.99,0-1.3-2.84,1.14-3.78,2.67-5.05,15.55-12.93,31.2-25.74,46.81-38.59,18.68-15.38,37.31-30.83,56.04-46.15,1.54-1.26,3.04-2.63,4.95-3.26,1.03-.34,2.44-.77,2.26,1.29l-23,26.85Z"/><path class="cls-3" d="m284.31,413.21c.08-1.86,1.75-2.41,2.92-3.11,25.87-15.58,51.79-31.1,77.71-46.62,1.3-.78,2.7-1.25,4.26-1.05-13.03,15.59-26.38,30.89-40.24,45.74-3.52,3.77-7.74,5.29-12.78,5.22-10.62-.13-21.24-.13-31.86-.19Z"/><path class="cls-43" d="m448.87,239.45c.95-.33,1.89-.66,2.84-.99.4.97.8,1.93,1.2,2.9-13.61,8.17-27.21,16.35-40.82,24.52-34.92,20.96-69.82,41.95-104.77,62.86-28.56,17.09-57.17,34.07-85.76,51.11-5.97,3.56-11.88,7.24-17.87,10.75-1.55.91-3.12,2.97-5.18.72.68-4.17,3.77-6.16,7.12-7.93,7.89-1.47,13.95-6.63,20.57-10.53,27-15.93,53.83-32.17,80.72-48.3,1.13-.68,2.22-1.43,3.32-2.14,1.54-1.21,3.49-1.72,4.99-3,1.54-1.2,3.49-1.73,4.99-3,1.54-1.2,3.49-1.73,4.99-3,1.54-1.2,3.49-1.73,4.99-3,1.54-1.2,3.49-1.73,4.99-3,2.17-1.61,4.86-2.31,6.98-4,1.54-1.2,3.49-1.73,4.99-3,1.54-1.2,3.49-1.73,4.99-3,1.54-1.2,3.49-1.73,4.99-3,1.54-1.2,3.49-1.73,4.99-3,1.54-1.2,3.49-1.73,4.99-3,1.54-1.2,3.49-1.73,4.99-3,1.54-1.2,3.49-1.73,4.99-3,1.54-1.2,3.49-1.72,4.99-3,1.54-1.2,3.49-1.72,4.99-3,1.54-1.2,3.49-1.72,4.99-3,1.54-1.2,3.49-1.72,4.99-3,1.54-1.2,3.49-1.72,4.99-3,2.17-1.61,4.86-2.31,6.98-4,1.54-1.2,3.49-1.72,4.99-3,1.54-1.2,3.49-1.72,4.99-3,1.54-1.2,3.49-1.72,4.99-3,1.54-1.2,3.49-1.72,4.99-3,1.54-1.2,3.49-1.72,4.99-3,1.54-1.2,3.49-1.72,4.99-3,1.54-1.2,3.49-1.72,4.99-3,1.54-1.2,3.49-1.72,4.99-3Z"/><path class="cls-30" d="m177.76,246.41c6.44-7.33,12.87-14.67,19.31-22,14.4-16.41,28.77-32.86,43.22-49.23,8.76-9.93,17.7-19.7,26.46-29.63,11.82-13.39,23.48-26.93,35.37-40.27,3.42-3.83,7.07-7.44,10.11-11.61,1.58-1.18,3.28-.65,4.97-.34.78.24,1.8.03,2.12,1.13-3.74,5.72-8.91,10.21-13.33,15.33-10.83,12.52-21.94,24.79-32.68,37.39-11.81,13.02-23.36,26.26-34.93,39.5-13.85,15.86-27.83,31.61-41.72,47.43-4.91,5.59-9.44,11.56-15.13,16.44-1.51-1.15-3.07-2.26-3.77-4.15Z"/><path class="cls-13" d="m258.4,321.45c-2.62-1.79-3.99.89-5.29,1.96-21.36,17.49-42.56,35.18-63.86,52.74-13.65,11.25-27.4,22.36-41.13,33.51-1.18.96-2.37,1.85-2.45,3.55-2.65,0-5.3,0-7.95,0,3.17-6.2,9.49-9.11,14.42-13.37,14.14-12.2,28.73-23.87,43.17-35.71,13.94-11.42,27.94-22.75,41.87-34.17,11.76-9.65,23.44-19.4,35.2-29.03,1.36-1.11,2.63-3.37,4.97-1.44-.7.95-1.4,1.89-2.1,2.84-1.55,3.82-4.71,6.5-7,9.79-2.69,2.7-4.32,6.42-7.93,8.23-.64.37-1.29.74-1.93,1.1Z"/><path class="cls-18" d="m260.33,320.34c2.37-2.98,4.75-5.95,7.12-8.93,26.13-14.82,51.67-30.63,77.49-45.99,27.1-16.12,54.13-32.36,81.18-48.57,1.76-1.06,3.46-2.85,5.87-1.42,1.31.55,1.93,1.58,2.05,2.96-21.26,12.82-42.5,25.66-63.77,38.44-23.26,13.98-46.54,27.92-69.84,41.85-12.08,7.22-24.21,14.33-36.29,21.55-1.33.8-2.48,1.88-3.81.12Z"/><path class="cls-18" d="m431.99,215.43c-8.63,3.48-16.1,9.04-24.03,13.74-31.7,18.81-63.25,37.87-94.87,56.83-13.18,7.91-26.4,15.76-39.56,23.7-1.92,1.16-3.83,1.93-6.07,1.72,2.62-3.02,4.32-6.82,7.81-9.09,3.01,1.87,4.97-.84,6.94-1.99,13.72-7.98,27.26-16.26,40.89-24.41,27.39-16.38,54.79-32.73,82.17-49.12,7.94-4.75,15.84-9.59,23.76-14.38.99,1.01,1.98,2.01,2.97,3.02Z"/><path class="cls-1" d="m181.53,250.56c1.16-4.65,5.36-7.04,8.13-10.4,8.39-10.21,17.56-19.78,26.29-29.71,11.13-12.65,22.08-25.46,33.2-38.12,7.64-8.69,15.45-17.24,23.18-25.85,3.45-1.82,5.18-6.52,10.03-5.99-1.54,4.61-5.65,7.26-8.58,10.71-11.35,13.33-23.31,26.14-34.88,39.3-15.92,18.1-31.65,36.36-47.55,54.48-2.39,2.73-5.23,5.06-7.86,7.58-.65-.66-1.31-1.33-1.96-1.99Z"/><path class="cls-40" d="m205.63,383.39c-2.37,2.64-4.74,5.28-7.12,7.93-6.82,6.84-13.19,14.07-18.88,21.88-6.65,0-13.31,0-19.96,0,6.12-6.77,13.74-11.78,20.64-17.63,12.44-10.54,25.13-20.79,37.66-31.22,1.69-1.4,3.28-2.77,5.57-2.94-2.36,2.96-4.72,5.92-7.09,8.88-3.56,4.41-8.35,7.79-10.83,13.09Z"/><path class="cls-36" d="m282.37,140.49c-3.79,1.25-6.17,4.86-10.03,5.99,8.38-9.56,16.72-19.15,25.14-28.67,6.45-7.31,13.01-14.52,19.46-21.83.7-.79,1.31-1.45,2.39-1.52,1.27.44,2.99-.83,3.89,1.02-6.04,6.74-11.93,13.61-18.14,20.17-7.71,8.15-14.16,17.46-22.7,24.83Z"/><path class="cls-50" d="m223.47,413.21c4.65,0,9.31,0,13.96,0,4.64.11,9.28.22,13.92.32-1.06,1.12-2.45.83-3.75.83-21.41.01-42.81.01-64.22,0-1.3,0-2.68.25-3.79-.77,1-.13,1.99-.25,2.99-.38,7.65,0,15.29,0,22.94,0,5.98,0,11.97,0,17.95,0Z"/><path class="cls-35" d="m110.78,93.38c-11.68,0-23.35.01-35.03.02,1.32-1.5,3.09-.88,4.67-.88,10.11,0,20.21.09,30.32.16.33.14.45.29.35.46-.1.17-.21.26-.31.26Z"/><path class="cls-28" d="m108.77,413.21c.65.11,1.31.22,1.96.33-3.45,1.76-7.16.83-10.7.74-7.38-.19-14.82,1.12-22.14-.74.99-.11,1.97-.22,2.96-.33,4.99,0,9.97,0,14.96,0,4.32-2.01,8.64-2.04,12.97,0Z"/><path class="cls-19" d="m161.63,93.66c-7.31-.1-14.62-.21-21.93-.31-.34-.14-.45-.29-.35-.45.1-.17.21-.25.31-.25,9.97,0,19.94,0,29.92,0,.33.14.45.29.35.46-.1.17-.21.26-.31.26-2.66.1-5.33.2-7.99.3Z"/><path class="cls-42" d="m288.31,93.35c-7.65.11-15.3.21-22.95.32-2.32-.11-4.65-.22-6.97-.33-.33-.15-.45-.32-.35-.5.1-.18.21-.27.31-.27,9.97,0,19.95-.01,29.92-.02.33.16.45.33.35.52-.1.19-.2.28-.31.28Z"/><path class="cls-7" d="m258.35,92.57c.01.26.03.51.04.77-9.97,0-19.95,0-29.92,0-.33-.15-.45-.31-.35-.48.1-.18.21-.27.31-.27,9.97,0,19.95,0,29.92-.01Z"/><path class="cls-22" d="m169.62,93.35c-.01-.24-.02-.48-.04-.71,9.97,0,19.95,0,29.92,0,.34.14.45.29.35.46-.1.17-.21.26-.31.26-9.97,0-19.95,0-29.92,0Z"/><path class="cls-25" d="m139.67,92.64c.01.24.03.47.04.71-6.65.1-13.31.2-19.97.3-2.99-.09-5.97-.18-8.96-.26-.01-.24-.03-.48-.04-.71,9.64,0,19.28-.02,28.93-.03Z"/><path class="cls-46" d="m288.31,93.35c-.01-.27-.02-.53-.04-.8,8.24-.02,16.47-.05,24.71-.04,1.44,0,3-.39,4.22.81-1.66.11-3.31.23-4.97.34-3.99,0-7.98,0-11.97,0-3.99-.11-7.97-.21-11.96-.32Z"/><path class="cls-23" d="m199.54,93.36c-.01-.24-.03-.48-.04-.72,9.64-.02,19.29-.03,28.93-.05.01.25.03.5.04.75-5.66.11-11.31.23-16.97.34-3.99-.1-7.97-.21-11.96-.31Z"/><path class="cls-48" d="m63.01,397.38c-.09,1.01-.17,2.01-.26,3.02-1.3-2.02-1.35-4.03,0-6.05.08,1.01.17,2.02.25,3.03Z"/><path class="cls-27" d="m455.96,256.49c0-2.04,0-4.07,0-6.11,1.38,2.03,1.38,4.07,0,6.11Z"/><path class="cls-38" d="m108.77,413.21c-4.32,0-8.64,0-12.97,0,1.42-4.75,6.02-6.49,9.3-9.27,16.01-13.58,32.34-26.77,48.59-40.08,15.86-12.99,31.78-25.89,47.61-38.92,14.04-11.56,27.95-23.29,41.99-34.86,13.78-11.35,27.68-22.56,41.47-33.9,14.05-11.56,28-23.22,42.03-34.81,13.64-11.27,27.3-22.51,40.98-33.73,4.09-3.35,8.27-6.59,12.42-9.87.88-.69,1.75-1.8,2.87-.29-10.97,12.66-21.94,25.33-32.91,37.99-1.82-1.8-3.15-.02-4.23.87-13.91,11.46-27.69,23.08-41.62,34.53-15.45,12.7-31.06,25.22-46.51,37.92-12.39,10.19-24.62,20.57-36.99,30.78-11.73,9.68-23.57,19.23-35.32,28.89-12.39,10.19-24.69,20.48-37.07,30.68-11.87,9.78-23.77,19.52-35.68,29.23-1.67,1.36-3.63,2.4-3.95,4.84Z"/><path class="cls-43" d="m408.98,263.44c-1.65,2.52-4.31,3.28-6.98,4,1.65-2.52,4.31-3.28,6.98-4Z"/><path class="cls-43" d="m342.15,303.42c-1.65,2.52-4.31,3.28-6.98,4,1.65-2.52,4.31-3.28,6.98-4Z"/><path class="cls-43" d="m402,267.43c-1.05,2.02-2.93,2.65-4.99,3,1.05-2.02,2.93-2.65,4.99-3Z"/><path class="cls-43" d="m397.01,270.43c-1.05,2.02-2.93,2.65-4.99,3,1.05-2.02,2.93-2.65,4.99-3Z"/><path class="cls-43" d="m392.02,273.43c-1.05,2.02-2.93,2.65-4.99,3,1.05-2.02,2.93-2.65,4.99-3Z"/><path class="cls-43" d="m382.05,279.43c-1.05,2.02-2.93,2.65-4.99,3,1.05-2.02,2.93-2.65,4.99-3Z"/><path class="cls-43" d="m377.06,282.43c-1.05,2.02-2.93,2.65-4.99,3,1.05-2.02,2.93-2.65,4.99-3Z"/><path class="cls-43" d="m372.07,285.43c-1.05,2.02-2.93,2.65-4.99,3,1.05-2.02,2.93-2.65,4.99-3Z"/><path class="cls-43" d="m387.04,276.43c-1.05,2.02-2.93,2.65-4.99,3,1.05-2.02,2.93-2.65,4.99-3Z"/><path class="cls-43" d="m362.1,291.42c-1.05,2.02-2.93,2.65-4.99,3,1.05-2.02,2.93-2.65,4.99-3Z"/><path class="cls-43" d="m357.11,294.42c-1.05,2.02-2.93,2.65-4.99,3,1.05-2.02,2.93-2.65,4.99-3Z"/><path class="cls-43" d="m352.13,297.42c-1.05,2.02-2.93,2.65-4.99,3,1.05-2.02,2.93-2.65,4.99-3Z"/><path class="cls-43" d="m347.14,300.42c-1.05,2.02-2.93,2.65-4.99,3,1.05-2.02,2.93-2.65,4.99-3Z"/><path class="cls-43" d="m433.91,248.44c-1.05,2.02-2.93,2.65-4.99,3,1.05-2.02,2.93-2.65,4.99-3Z"/><path class="cls-43" d="m443.89,242.44c-1.05,2.02-2.93,2.65-4.99,3,1.05-2.02,2.93-2.65,4.99-3Z"/><path class="cls-43" d="m335.17,307.42c-1.05,2.02-2.93,2.65-4.99,3,1.05-2.02,2.93-2.65,4.99-3Z"/><path class="cls-43" d="m330.19,310.42c-1.05,2.02-2.93,2.65-4.99,3,1.05-2.02,2.93-2.65,4.99-3Z"/><path class="cls-43" d="m413.96,260.44c-1.05,2.02-2.93,2.65-4.99,3,1.05-2.02,2.93-2.65,4.99-3Z"/><path class="cls-43" d="m320.21,316.41c-1.05,2.02-2.93,2.65-4.99,3,1.05-2.02,2.93-2.65,4.99-3Z"/><path class="cls-43" d="m315.22,319.41c-1.05,2.02-2.93,2.65-4.99,3,1.05-2.02,2.93-2.65,4.99-3Z"/><path class="cls-43" d="m428.93,251.44c-1.05,2.02-2.93,2.65-4.99,3,1.05-2.02,2.93-2.65,4.99-3Z"/><path class="cls-43" d="m423.94,254.44c-1.05,2.02-2.93,2.65-4.99,3,1.05-2.02,2.93-2.65,4.99-3Z"/><path class="cls-43" d="m367.09,288.42c-1.05,2.02-2.93,2.65-4.99,3,1.05-2.02,2.93-2.65,4.99-3Z"/><path class="cls-43" d="m418.95,257.44c-1.05,2.02-2.93,2.65-4.99,3,1.05-2.02,2.93-2.65,4.99-3Z"/><path class="cls-43" d="m448.87,239.45c-1.05,2.02-2.93,2.65-4.99,3,1.05-2.02,2.93-2.65,4.99-3Z"/><path class="cls-43" d="m438.9,245.44c-1.05,2.02-2.93,2.65-4.99,3,1.05-2.02,2.93-2.65,4.99-3Z"/><path class="cls-43" d="m325.2,313.41c-1.05,2.02-2.93,2.65-4.99,3,1.05-2.02,2.93-2.65,4.99-3Z"/></svg>